<svg id="Group_3777" data-name="Group 3777" xmlns="http://www.w3.org/2000/svg" width="58.578" height="69.961" viewBox="0 0 58.578 69.961">
  <path id="Path_18995" data-name="Path 18995" d="M987.654,284.008c-.177,2.426-.535,2.761-2.848,2.948,2.313.187,2.671.522,2.848,2.948.177-2.426.535-2.761,2.848-2.948-2.313-.187-2.671-.521-2.848-2.948m9.4,6.4c-.094,1.3-.285,1.474-1.52,1.574,1.235.1,1.426.278,1.52,1.574.095-1.3.286-1.474,1.52-1.574-1.235-.1-1.426-.279-1.52-1.574m-4.118-9.97c-.1,1.312-.289,1.493-1.54,1.594,1.251.1,1.444.282,1.54,1.594.1-1.312.289-1.493,1.54-1.594-1.251-.1-1.445-.282-1.54-1.594" transform="translate(-956.582 -268.203)" fill="#fff" fill-rule="evenodd"/>
  <path id="Path_18996" data-name="Path 18996" d="M777.9,1210.793c.143,1.966.433,2.237,2.307,2.388-1.874.151-2.164.423-2.307,2.388-.143-1.966-.433-2.237-2.307-2.388,1.874-.152,2.164-.423,2.307-2.388m-7.618,5.185c.076,1.049.231,1.194,1.232,1.275-1,.08-1.156.225-1.232,1.275-.077-1.049-.231-1.194-1.232-1.275,1-.081,1.155-.226,1.232-1.275m3.336-8.077c.077,1.063.234,1.21,1.248,1.292-1.014.082-1.17.228-1.248,1.291-.077-1.063-.234-1.209-1.248-1.291,1.013-.082,1.17-.229,1.248-1.292" transform="translate(-750.236 -1155.207)" fill="#fff" fill-rule="evenodd"/>
  <path id="Path_18998" data-name="Path 18998" d="M469.433,157.884l-7.974,40.745a2.346,2.346,0,0,0,1.846,2.745l25.824,5.054a2.347,2.347,0,0,0,2.745-1.846l7.974-40.745c.385-1.965-3.786-8.35-4.838-10.306-.845-1.572-4.689-10.108-6.8-10.327-2.749-.286-8.523,5.521-10.292,6.983-1.61,1.331-8.151,5.968-8.489,7.7" transform="translate(-457.26 -136.946)" fill="#fff" fill-rule="evenodd"/>
  <path id="Path_18999" data-name="Path 18999" d="M1127,382.743a2.982,2.982,0,0,1,.86,5.836,2.973,2.973,0,1,0-.925-5.836H1127" transform="translate(-1092.513 -365.945)" fill="#1b395f" fill-rule="evenodd"/>
  <path id="Path_19000" data-name="Path 19000" d="M691.228,1351.112l-18.02-3.527c-.146-.029-.247-.142-.225-.253l.079-.4a.244.244,0,0,1,.3-.149l18.02,3.526c.146.029.247.142.226.253l-.079.4a.244.244,0,0,1-.3.149" transform="translate(-658.357 -1288.023)" fill="#1b395f" fill-rule="evenodd" opacity="0.18"/>
  <path id="Path_19001" data-name="Path 19001" d="M593.061,1283.209l-22.917-4.485c-.146-.028-.247-.142-.225-.252l.079-.4a.245.245,0,0,1,.3-.149l22.917,4.485c.146.029.247.142.225.253l-.079.4a.244.244,0,0,1-.3.149" transform="translate(-559.79 -1222.166)" fill="#1b395f" fill-rule="evenodd" opacity="0.18"/>
  <path id="Path_19002" data-name="Path 19002" d="M602.238,1236.318l-22.917-4.484c-.146-.029-.247-.142-.226-.253l.079-.4a.244.244,0,0,1,.3-.149l22.917,4.485c.146.028.247.142.225.253l-.079.4a.244.244,0,0,1-.3.149" transform="translate(-568.567 -1177.321)" fill="#1b395f" fill-rule="evenodd" opacity="0.18"/>
  <path id="Path_19003" data-name="Path 19003" d="M813.774,1229.022l-13.686-2.679c-.146-.029-.247-.142-.225-.253l.079-.4a.244.244,0,0,1,.3-.149l13.686,2.679c.146.028.247.142.226.253l-.079.4a.245.245,0,0,1-.3.149" transform="translate(-779.703 -1172.07)" fill="#1b395f" fill-rule="evenodd" opacity="0.18"/>
  <rect id="Rectangle_2408" data-name="Rectangle 2408" width="4.392" height="26.81" transform="translate(9.348 46.945) rotate(-78.927)" fill="#1b395f" opacity="0.18"/>
  <path id="Path_19004" data-name="Path 19004" d="M784.14,942.145l-18.021-3.526c-.146-.029-.247-.142-.225-.252l.079-.4a.245.245,0,0,1,.3-.149l18.02,3.527c.146.029.247.142.226.253l-.079.4a.244.244,0,0,1-.3.149" transform="translate(-747.217 -896.896)" fill="#1b395f" fill-rule="evenodd" opacity="0.18"/>
  <path id="Path_19005" data-name="Path 19005" d="M685.974,874.245l-22.917-4.485c-.146-.028-.247-.142-.225-.253l.079-.4a.244.244,0,0,1,.3-.149l22.917,4.485c.146.029.247.142.225.252l-.079.4a.244.244,0,0,1-.3.149" transform="translate(-648.65 -831.041)" fill="#1b395f" fill-rule="evenodd" opacity="0.18"/>
  <path id="Path_19006" data-name="Path 19006" d="M695.154,827.348l-22.917-4.484c-.146-.029-.247-.142-.225-.253l.079-.4a.244.244,0,0,1,.3-.149l22.917,4.485c.146.029.247.142.225.253l-.079.4a.244.244,0,0,1-.3.149" transform="translate(-657.43 -786.191)" fill="#1b395f" fill-rule="evenodd" opacity="0.18"/>
  <rect id="Rectangle_2409" data-name="Rectangle 2409" width="4.392" height="26.81" transform="matrix(0.192, -0.981, 0.981, 0.192, 14.767, 26.916)" fill="#1b395f" opacity="0.18"/>
  <rect id="Rectangle_2410" data-name="Rectangle 2410" width="4.392" height="26.81" transform="translate(13.63 32.729) rotate(-78.927)" fill="#1b395f" opacity="0.18"/>
  <path id="Path_19007" data-name="Path 19007" d="M467.027,155.391l-7.974,40.745a2.23,2.23,0,0,0,1.755,2.61l25.824,5.054a2.23,2.23,0,0,0,2.61-1.756l7.974-40.745c.3-1.519-2.26-5.848-3.848-8.536-.413-.7-.762-1.289-.979-1.693-.133-.247-.34-.666-.6-1.2-1.4-2.832-4.391-8.891-6.1-9.07-2.206-.23-6.476,3.619-8.907,5.81-.535.482-.982.885-1.3,1.148s-.863.682-1.511,1.178c-2.5,1.917-6.678,5.119-6.939,6.453m-8.2,40.7,7.974-40.745c.277-1.419,4.5-4.654,7.025-6.592.642-.492,1.174-.9,1.5-1.173s.761-.662,1.293-1.142c2.458-2.216,6.777-6.107,9.084-5.867,1.839.192,4.87,6.328,6.287,9.2.261.528.467.945.6,1.191.215.4.562.987.974,1.685,1.605,2.718,4.189,7.093,3.876,8.7l-7.974,40.745a2.462,2.462,0,0,1-2.88,1.937l-25.824-5.054a2.461,2.461,0,0,1-1.937-2.88" transform="translate(-453.504 -134.431)" fill="#1b395f" fill-rule="evenodd"/>
  <path id="Path_19008" data-name="Path 19008" d="M813.068,141.316l8.084,41.428a2.385,2.385,0,0,1-1.879,2.789l-26.258,5.124a2.385,2.385,0,0,1-2.789-1.879l-8.084-41.428c-.39-2,3.854-8.487,4.925-10.475.86-1.6,4.773-10.274,6.915-10.5,2.8-.289,8.662,5.618,10.46,7.105,1.636,1.354,8.283,6.072,8.626,7.831m-15.116-3.767a2.973,2.973,0,1,0,2.971,2.974,2.973,2.973,0,0,0-2.971-2.974" transform="translate(-762.735 -120.857)" fill="#1b395f" fill-rule="evenodd"/>
  <path id="Path_19009" data-name="Path 19009" d="M810.64,138.742l8.084,41.428a2.5,2.5,0,0,1-1.971,2.927L790.5,188.22a2.5,2.5,0,0,1-2.926-1.971l-8.084-41.428c-.318-1.631,2.312-6.078,3.945-8.84.42-.709.773-1.307.991-1.712.135-.25.344-.673.61-1.21,1.442-2.915,4.526-9.152,6.4-9.346,2.346-.243,6.734,3.716,9.232,5.97.541.488.993.9,1.314,1.162s.876.692,1.528,1.193c2.569,1.971,6.857,5.263,7.138,6.705m7.854,41.473-8.083-41.428c-.265-1.356-4.509-4.614-7.051-6.565-.658-.5-1.2-.923-1.535-1.2s-.777-.677-1.321-1.168c-2.471-2.229-6.809-6.143-9.052-5.911-1.742.181-4.787,6.339-6.211,9.217-.267.541-.478.967-.613,1.218-.221.411-.575,1.01-1,1.721-1.616,2.732-4.218,7.132-3.917,8.676L787.8,186.2a2.268,2.268,0,0,0,2.653,1.786l26.257-5.123a2.268,2.268,0,0,0,1.786-2.652M795.41,134.88a3.09,3.09,0,1,0,2.184.906,3.08,3.08,0,0,0-2.184-.906m2.018,1.072a2.855,2.855,0,1,0,.835,2.02,2.848,2.848,0,0,0-.835-2.02" transform="translate(-760.192 -118.305)" fill="#fff" fill-rule="evenodd"/>
  <path id="Path_19010" data-name="Path 19010" d="M632.451,20.942c3.28.7,8.659.294,13.065-1.093,3.575-1.125,6.658-2.94,7.847-5.446,1.457-3.074.83-4.546-.8-5.318a18.266,18.266,0,0,0-5.477-1.043c-.7-.068-1.4-.138-2.068-.22a15.377,15.377,0,0,1-8.227-3.165c-2.909-2.04-6.054-4.246-19.749-4.246a6.847,6.847,0,0,0-3.034.574A3.2,3.2,0,0,0,612.2,3.594a8.971,8.971,0,0,0,.611,3.975,27.192,27.192,0,0,0,4.672,7.918l-.312.27A27.66,27.66,0,0,1,612.419,7.7a9.367,9.367,0,0,1-.631-4.164A3.589,3.589,0,0,1,613.826.616,7.241,7.241,0,0,1,617.043,0c13.822,0,17.024,2.245,19.984,4.321a15.026,15.026,0,0,0,8.041,3.093c.7.086,1.386.154,2.058.219a18.491,18.491,0,0,1,5.613,1.08c1.854.879,2.589,2.51,1,5.867-1.244,2.624-4.422,4.507-8.1,5.664a28.141,28.141,0,0,1-12.983,1.039l-.091-.133Z" transform="translate(-599.792 0.002)" fill="#1b395f" fill-rule="evenodd"/>
  <path id="Path_19011" data-name="Path 19011" d="M528.162,77.878a7.864,7.864,0,1,1,7.864,7.864,7.864,7.864,0,0,1-7.864-7.864" transform="translate(-519.858 -66.96)" fill="#1b395f" fill-rule="evenodd"/>
  <path id="Path_19012" data-name="Path 19012" d="M555.438,103.963a6.674,6.674,0,1,1,6.674,6.674,6.674,6.674,0,0,1-6.674-6.674" transform="translate(-545.944 -93.045)" fill="#1b395f" fill-rule="evenodd"/>
  <path id="Path_19013" data-name="Path 19013" d="M588.627,119.7a6.675,6.675,0,0,1-9.116,9.284,6.675,6.675,0,1,0,9.116-9.284" transform="translate(-568.967 -114.479)" fill="#fff" fill-rule="evenodd" opacity="0.14"/>
  <path id="Path_19014" data-name="Path 19014" d="M572.628,120.761a5.891,5.891,0,0,1,10.561-3.591,5.892,5.892,0,1,0-9.779,6.528,5.865,5.865,0,0,1-.783-2.936" transform="translate(-561.964 -109.232)" fill="#fff" fill-rule="evenodd" opacity="0.48"/>
  <path id="Path_19015" data-name="Path 19015" d="M661.524,151.533v.85a1.79,1.79,0,0,1,.837.338,2.592,2.592,0,0,1,.62.785l-.846.473a1.132,1.132,0,0,0-1-.694.914.914,0,0,0-.633.226.725.725,0,0,0-.252.564.694.694,0,0,0,.2.512,2.953,2.953,0,0,0,.807.473,8.056,8.056,0,0,1,.868.449,2.3,2.3,0,0,1,.516.406,1.815,1.815,0,0,1,.49,1.28,2.049,2.049,0,0,1-.442,1.3,2.142,2.142,0,0,1-1.171.755v.9h-.759v-.872a2.307,2.307,0,0,1-1.3-.586,2.8,2.8,0,0,1-.66-1.379l.955-.2a2.23,2.23,0,0,0,.477.941,1.12,1.12,0,0,0,.785.269,1.108,1.108,0,0,0,.8-.308,1.039,1.039,0,0,0,.317-.785.923.923,0,0,0-.265-.69,2.457,2.457,0,0,0-.4-.284,6.825,6.825,0,0,0-.67-.345,3.242,3.242,0,0,1-1.106-.694,1.736,1.736,0,0,1-.321-1.713,1.586,1.586,0,0,1,.288-.488,1.789,1.789,0,0,1,.466-.38,2.508,2.508,0,0,1,.629-.252v-.85Z" transform="translate(-644.805 -144.923)" fill="#fff" fill-rule="evenodd"/>
  <path id="Path_19016" data-name="Path 19016" d="M1018.453,744.473a9.085,9.085,0,1,1,10.577,7.294,9.085,9.085,0,0,1-10.577-7.294" transform="translate(-988.616 -701.736)" fill="#fff" fill-rule="evenodd"/>
  <path id="Path_19017" data-name="Path 19017" d="M1049.947,774.369a7.71,7.71,0,1,1,8.977,6.19,7.711,7.711,0,0,1-8.977-6.19" transform="translate(-1018.758 -731.88)" fill="#1b395f" fill-rule="evenodd"/>
  <path id="Path_19018" data-name="Path 19018" d="M1105.694,776.958a7.712,7.712,0,0,1-8.42,12.452,7.711,7.711,0,1,0,8.42-12.452" transform="translate(-1064.143 -743.064)" fill="#fff" fill-rule="evenodd" opacity="0.06"/>
  <path id="Path_19019" data-name="Path 19019" d="M1069.727,793.782a6.806,6.806,0,0,1,11.251-6.286,6.807,6.807,0,1,0-9.748,9.459,6.768,6.768,0,0,1-1.5-3.173" transform="translate(-1037.082 -750.843)" fill="#fff" fill-rule="evenodd" opacity="0.29"/>
  <path id="Path_19020" data-name="Path 19020" d="M1175.378,827.213l.177.966a2.071,2.071,0,0,1,1.022.21,2.99,2.99,0,0,1,.869.763l-.863.714a1.307,1.307,0,0,0-1.278-.58,1.056,1.056,0,0,0-.673.388.84.84,0,0,0-.168.693.8.8,0,0,0,.339.539,3.412,3.412,0,0,0,1.016.369,9.319,9.319,0,0,1,1.079.329,2.673,2.673,0,0,1,.671.354,2.1,2.1,0,0,1,.824,1.352,2.364,2.364,0,0,1-.231,1.571,2.475,2.475,0,0,1-1.173,1.1l.188,1.02-.863.158-.182-.991a2.666,2.666,0,0,1-1.6-.395,3.233,3.233,0,0,1-1.037-1.43l1.043-.426a2.574,2.574,0,0,0,.739.97,1.293,1.293,0,0,0,.948.141,1.279,1.279,0,0,0,.843-.517,1.2,1.2,0,0,0,.2-.958,1.068,1.068,0,0,0-.445-.729,2.821,2.821,0,0,0-.51-.24,7.843,7.843,0,0,0-.833-.252,3.748,3.748,0,0,1-1.4-.558,2.005,2.005,0,0,1-.722-1.88,1.831,1.831,0,0,1,.226-.615,2.068,2.068,0,0,1,.451-.528,2.88,2.88,0,0,1,.662-.417l-.177-.966Z" transform="translate(-1136.879 -791.127)" fill="#fff" fill-rule="evenodd"/>
  <path id="Path_19021" data-name="Path 19021" d="M1073.568,1181.953l18.413-3.385a1.191,1.191,0,0,1,1.382.953l.331,1.8a1.192,1.192,0,0,1-.953,1.383l-18.413,3.385a1.19,1.19,0,0,1-1.382-.953l-.33-1.8a1.191,1.191,0,0,1,.953-1.382" transform="translate(-1040.541 -1127.135)" fill="#fff" fill-rule="evenodd"/>
  <path id="Path_19022" data-name="Path 19022" d="M1092.424,1297.286l19.581-3.6a.6.6,0,0,1,.691.476l.165.9a.6.6,0,0,1-.476.691l-19.581,3.6a.6.6,0,0,1-.691-.477l-.165-.9a.6.6,0,0,1,.477-.691" transform="translate(-1059.039 -1237.242)" fill="#fff" fill-rule="evenodd"/>
  <path id="Path_19023" data-name="Path 19023" d="M337.8,362.63a7.864,7.864,0,1,1,7.864,7.864,7.864,7.864,0,0,1-7.864-7.864" transform="translate(-337.8 -339.29)" fill="#1b395f" fill-rule="evenodd"/>
  <path id="Path_19024" data-name="Path 19024" d="M365.075,388.715a6.674,6.674,0,1,1,6.674,6.674,6.674,6.674,0,0,1-6.674-6.674" transform="translate(-363.885 -365.375)" fill="#fff" fill-rule="evenodd"/>
  <path id="Path_19025" data-name="Path 19025" d="M398.265,404.456a6.675,6.675,0,0,1-9.116,9.283,6.675,6.675,0,1,0,9.116-9.283" transform="translate(-386.909 -386.812)" fill-rule="evenodd" opacity="0.18"/>
  <path id="Path_19026" data-name="Path 19026" d="M382.265,405.513a5.891,5.891,0,0,1,10.561-3.591,5.892,5.892,0,1,0-9.779,6.528,5.864,5.864,0,0,1-.783-2.936" transform="translate(-379.906 -381.563)" fill-rule="evenodd" opacity="0.17"/>
  <path id="Path_19027" data-name="Path 19027" d="M471.162,436.288v.85a1.789,1.789,0,0,1,.837.338,2.592,2.592,0,0,1,.621.785l-.846.473a1.131,1.131,0,0,0-1-.694.913.913,0,0,0-.633.226.726.726,0,0,0-.252.564.694.694,0,0,0,.2.512,2.947,2.947,0,0,0,.807.473,8.138,8.138,0,0,1,.868.449,2.311,2.311,0,0,1,.516.406,1.815,1.815,0,0,1,.49,1.28,2.048,2.048,0,0,1-.443,1.3,2.14,2.14,0,0,1-1.171.755v.9H470.4v-.872a2.308,2.308,0,0,1-1.3-.586,2.8,2.8,0,0,1-.66-1.379l.955-.2a2.23,2.23,0,0,0,.477.941,1.121,1.121,0,0,0,.785.269,1.108,1.108,0,0,0,.8-.308,1.039,1.039,0,0,0,.317-.785.923.923,0,0,0-.265-.69,2.449,2.449,0,0,0-.4-.284,6.859,6.859,0,0,0-.67-.345,3.237,3.237,0,0,1-1.106-.694,1.737,1.737,0,0,1-.321-1.714,1.593,1.593,0,0,1,.289-.488,1.789,1.789,0,0,1,.466-.38,2.51,2.51,0,0,1,.629-.252v-.85Z" transform="translate(-462.747 -417.256)" fill="#1b395f" fill-rule="evenodd"/>
  <path id="Path_19028" data-name="Path 19028" d="M872.652,924.878a.157.157,0,1,1,.309-.059l2.7,14.077a.157.157,0,1,1-.309.059Z" transform="translate(-849.317 -884.352)" fill="#fff" fill-rule="evenodd"/>
</svg>
