<svg id="Group_3781" data-name="Group 3781" xmlns="http://www.w3.org/2000/svg" xmlns:xlink="http://www.w3.org/1999/xlink" width="59.96" height="72.426" viewBox="0 0 59.96 72.426">
  <defs>
    <clipPath id="clip-path">
      <rect id="Rectangle_2416" data-name="Rectangle 2416" width="59.96" height="72.426" fill="none"/>
    </clipPath>
  </defs>
  <g id="Group_3272" data-name="Group 3272" clip-path="url(#clip-path)">
    <path id="Path_19040" data-name="Path 19040" d="M26.37,1.154l-3.764,1.2-2.805.9L15.373,4.671l-9.4,3.007L.325,9.483,0,9.587V31.98q0,1.147.073,2.284c.034.544.082,1.085.141,1.624a36.449,36.449,0,0,0,2.38,9.6q.617,1.548,1.372,3.034c.279.549.574,1.09.881,1.624A36.455,36.455,0,0,0,14.893,61.386l.044.033.875.64,6.9,5.046,1.968,1.44,1.9,1.39.055.04,3.349,2.45-1.012-.809L44.01,60.61A36.479,36.479,0,0,0,58.947,31.17V9.264l1.012.323L29.979,0,28.656.423Zm12.413,3.3,9.1,3.067c1.517.512,3.037,1.012,4.545,1.548s3.014,1.079,4.507,1.659l.006.014-.013.006c-1.533-.465-3.051-.973-4.57-1.478s-3.022-1.055-4.531-1.588L38.776,4.472l-.006-.014ZM33.876,4.9h0l23.056,7.373V32.407A32.8,32.8,0,0,1,43.5,58.874l-13.524,9.9-13.524-9.9A32.8,32.8,0,0,1,3.026,32.407V12.276L29.979,3.656Zm-4.9-3.176-.007.013L1.507,10.884l.021,13.493.013,6.77,0,1.692c.01.556.074,1.119.132,1.677.124,1.118.3,2.231.518,3.336s.473,2.2.772,3.287.646,2.157,1.021,3.218a37.525,37.525,0,0,0,2.825,6.125,33.221,33.221,0,0,0,1.835,2.834,30.246,30.246,0,0,0,2.144,2.608,27.933,27.933,0,0,0,5.125,4.385l0,.015-.014,0a28.592,28.592,0,0,1-9.231-9.764A37.687,37.687,0,0,1,3.79,44.429q-.575-1.6-1.028-3.233t-.775-3.3c-.216-1.11-.4-2.228-.52-3.353-.059-.564-.122-1.124-.13-1.7l0-1.692.013-6.772.021-13.542.045-.063L28.964,1.719Z" transform="translate(0.001)" fill="#1b395f"/>
    <path id="Path_19041" data-name="Path 19041" d="M357.2,104.643l-1.012-.323v21.906a36.479,36.479,0,0,1-14.938,29.44l-15.042,11.007,1.012.809,8.29-6.066,6.753-4.941a36.5,36.5,0,0,0,14.938-29.44Z" transform="translate(-297.244 -95.056)" fill="#1b395f"/>
    <path id="Path_19042" data-name="Path 19042" d="M34.084,49.793V69.925A32.8,32.8,0,0,0,47.513,96.392l13.524,9.9-1.666-1.219a63.738,63.738,0,0,0,5.764-8.033,56.074,56.074,0,0,0,8.236-29.886L58.892,90.2a2.663,2.663,0,0,1-1.99,1.234,2.6,2.6,0,0,1-.265.013h0a2.663,2.663,0,0,1-1.93-.829L47.03,82.548a2.664,2.664,0,1,1,3.861-3.671L56.2,84.464,72.458,58.587A37.964,37.964,0,0,0,68.434,47.36,28.965,28.965,0,0,0,65.1,42.6c-.054-.063-.113-.121-.169-.182l-3.9-1.246ZM49.5,96.014c1.2.992,2.457,1.9,3.737,2.783.645.434,1.306.843,1.958,1.267l2,1.2,0,.014-.014,0-2.04-1.138c-.661-.412-1.329-.813-1.983-1.237-1.3-.862-2.579-1.754-3.8-2.731l-.908-.738-.878-.774-.439-.387c-.146-.13-.283-.268-.425-.4l-.845-.809c-.275-.276-.54-.563-.811-.844l-.4-.424c-.132-.143-.258-.292-.388-.438l-.77-.881-.735-.91A37.8,37.8,0,0,1,40.1,85.729,33.316,33.316,0,0,1,38,81.556a28.576,28.576,0,0,1-1.451-4.44c-.182-.757-.332-1.523-.438-2.295a16.182,16.182,0,0,1-.178-2.328l.011-.011.01.011a16.142,16.142,0,0,0,.2,2.322c.113.769.269,1.532.458,2.286a28.462,28.462,0,0,0,1.487,4.413,33.181,33.181,0,0,0,2.126,4.143,37.651,37.651,0,0,0,2.677,3.81l.74.9.774.87c.13.144.257.291.39.433l.406.418c.272.277.538.56.814.832l.842.8c.141.133.278.271.423.4l.437.385.874.77Z" transform="translate(-31.057 -37.518)" fill="#1b395f" opacity="0.36"/>
    <path id="Path_19043" data-name="Path 19043" d="M327.91,60.146a37.964,37.964,0,0,1,4.024,11.227l2.706-4.308a2.664,2.664,0,0,1,3.673-.839c.05.031.1.067.144.1h0l0,0a2.66,2.66,0,0,1,.376.331l.011.011a2.659,2.659,0,0,1,.294.38l.013.021a2.658,2.658,0,0,1,.211.413l.013.034a2.682,2.682,0,0,1,.128.433c0,.015.005.03.008.046a2.672,2.672,0,0,1,.046.441c0,.018,0,.035,0,.052a2.658,2.658,0,0,1-.037.443c0,.017-.008.033-.011.05a2.637,2.637,0,0,1-.123.44c0,.012-.011.024-.016.036a2.684,2.684,0,0,1-.214.427l-.006.011-6.3,10.037a56.074,56.074,0,0,1-8.236,29.886,63.744,63.744,0,0,1-5.764,8.033l1.666,1.219,13.524-9.9a32.8,32.8,0,0,0,13.43-26.467V62.579l-23.056-7.373h0c.056.062.114.119.169.182a28.966,28.966,0,0,1,3.331,4.757" transform="translate(-290.534 -50.304)" fill="#1b395f" opacity="0.78"/>
    <path id="Path_19044" data-name="Path 19044" d="M179.643,211.9a2.663,2.663,0,0,0,1.693.61,2.625,2.625,0,0,0,.265-.013,2.662,2.662,0,0,0,1.99-1.234l20.785-33.088a2.664,2.664,0,0,0-.088-2.965c-.047-.034-.094-.069-.144-.1a2.664,2.664,0,0,0-3.673.839l-2.706,4.308L181.51,206.134l-5.313-5.587a2.664,2.664,0,1,0-3.861,3.671l7.675,8.071a2.663,2.663,0,0,0,1.93.829h0a2.663,2.663,0,0,1-1.93-.829Z" transform="translate(-156.364 -159.188)" fill="#fff"/>
    <path id="Path_19045" data-name="Path 19045" d="M547.5,188.82a2.671,2.671,0,0,1,.211.413,2.661,2.661,0,0,0-.211-.413" transform="translate(-498.884 -172.052)" fill="#fff"/>
    <path id="Path_19046" data-name="Path 19046" d="M539.692,180.451a2.68,2.68,0,0,1,.376.331,2.649,2.649,0,0,0-.376-.331" transform="translate(-491.766 -164.427)" fill="#fff"/>
    <path id="Path_19047" data-name="Path 19047" d="M544.044,184.3a2.656,2.656,0,0,1,.294.38,2.659,2.659,0,0,0-.294-.38" transform="translate(-495.732 -167.935)" fill="#fff"/>
    <path id="Path_19048" data-name="Path 19048" d="M551.55,199.245a2.665,2.665,0,0,1,.046.441,2.678,2.678,0,0,0-.046-.441" transform="translate(-502.571 -181.552)" fill="#fff"/>
    <path id="Path_19049" data-name="Path 19049" d="M547.769,215.724a2.676,2.676,0,0,1-.214.427,2.681,2.681,0,0,0,.214-.427" transform="translate(-498.931 -196.567)" fill="#fff"/>
    <path id="Path_19050" data-name="Path 19050" d="M550.266,210.356a2.618,2.618,0,0,1-.123.44,2.618,2.618,0,0,0,.123-.44" transform="translate(-501.289 -191.676)" fill="#fff"/>
    <path id="Path_19051" data-name="Path 19051" d="M551.681,204.806a2.652,2.652,0,0,1-.037.443,2.652,2.652,0,0,0,.037-.443" transform="translate(-502.657 -186.619)" fill="#fff"/>
    <path id="Path_19052" data-name="Path 19052" d="M550.021,193.857a2.679,2.679,0,0,1,.128.433,2.681,2.681,0,0,0-.128-.433" transform="translate(-501.178 -176.642)" fill="#fff"/>
    <path id="Path_19053" data-name="Path 19053" d="M287.488,183.984a2.668,2.668,0,0,0,.214-.427c0-.012.011-.024.016-.036a2.618,2.618,0,0,0,.123-.44c0-.017.008-.033.011-.05a2.646,2.646,0,0,0,.037-.443c0-.018,0-.035,0-.052a2.67,2.67,0,0,0-.046-.441c0-.015-.005-.03-.008-.046a2.677,2.677,0,0,0-.128-.433l-.013-.034a2.676,2.676,0,0,0-.211-.414l-.013-.021a2.657,2.657,0,0,0-.294-.38l-.011-.011a2.667,2.667,0,0,0-.376-.331l0,0h0a2.663,2.663,0,0,1,.088,2.965l-20.784,33.088a2.663,2.663,0,0,1-1.99,1.234,2.625,2.625,0,0,1-.265.013,2.664,2.664,0,0,1-1.693-.61l.369.388a2.664,2.664,0,0,0,1.93.829h0a2.6,2.6,0,0,0,.265-.014,2.663,2.663,0,0,0,1.99-1.234l14.48-23.051,6.3-10.037s0-.008.006-.011" transform="translate(-238.864 -164.4)" fill="#1b395f" opacity="0.24"/>
    <path id="Path_19054" data-name="Path 19054" d="M15.152,28.416l-.045.063-.021,13.542-.013,6.772,0,1.692c.008.573.07,1.133.13,1.7.124,1.125.3,2.242.52,3.353s.475,2.212.775,3.3.645,2.168,1.028,3.233A37.68,37.68,0,0,0,20.406,68.2a28.592,28.592,0,0,0,9.231,9.764l.014,0,0-.015a27.932,27.932,0,0,1-5.125-4.385,30.214,30.214,0,0,1-2.144-2.608,33.178,33.178,0,0,1-1.835-2.834A37.518,37.518,0,0,1,17.719,62c-.375-1.061-.72-2.133-1.021-3.218s-.554-2.182-.772-3.287-.395-2.217-.518-3.336c-.058-.558-.122-1.121-.132-1.677l0-1.692-.013-6.77-.021-13.493L42.7,19.381l.007-.013-.013-.007Z" transform="translate(-13.731 -17.642)" fill="#fff"/>
    <path id="Path_19055" data-name="Path 19055" d="M66.209,415.384c-.145-.129-.282-.267-.423-.4l-.841-.8c-.276-.272-.542-.555-.814-.832l-.406-.418c-.133-.141-.26-.289-.39-.433l-.774-.87-.74-.9a37.625,37.625,0,0,1-2.676-3.81,33.19,33.19,0,0,1-2.126-4.143,28.454,28.454,0,0,1-1.487-4.413c-.189-.754-.345-1.517-.458-2.286a16.154,16.154,0,0,1-.2-2.322l-.01-.011-.011.011a16.182,16.182,0,0,0,.178,2.328c.106.772.255,1.538.438,2.295a28.569,28.569,0,0,0,1.451,4.44,33.327,33.327,0,0,0,2.106,4.173,37.822,37.822,0,0,0,2.662,3.845l.735.91.77.881c.129.146.256.295.388.438l.4.424c.271.281.536.568.811.844l.845.809c.142.134.279.273.425.4l.439.387.878.774.908.738c1.217.976,2.5,1.869,3.8,2.731.654.423,1.322.824,1.983,1.236l2.04,1.138.014,0,0-.014-2-1.2c-.652-.424-1.313-.834-1.958-1.267-1.28-.881-2.542-1.791-3.737-2.783l-.9-.734-.874-.77Z" transform="translate(-49.983 -358.776)" fill="#fff"/>
    <path id="Path_19056" data-name="Path 19056" d="M445.652,53.356c1.509.533,3.014,1.079,4.531,1.588s3.037,1.013,4.57,1.478l.013-.006-.006-.014c-1.493-.581-3-1.118-4.507-1.659s-3.029-1.036-4.545-1.548l-9.1-3.067-.013.007.007.014Z" transform="translate(-397.823 -45.677)" fill="#fff"/>
  </g>
</svg>
