<svg id="Group_3268" data-name="Group 3268" xmlns="http://www.w3.org/2000/svg" xmlns:xlink="http://www.w3.org/1999/xlink" width="51.595" height="78.909" viewBox="0 0 51.595 78.909">
  <defs>
    <clipPath id="clip-path">
      <rect id="Rectangle_2415" data-name="Rectangle 2415" width="51.595" height="78.909" fill="none"/>
    </clipPath>
  </defs>
  <g id="Group_3267" data-name="Group 3267" clip-path="url(#clip-path)">
    <path id="Path_19031" data-name="Path 19031" d="M299.727,253.785A10.977,10.977,0,1,1,310.7,242.808a10.977,10.977,0,0,1-10.978,10.977" transform="translate(-273.756 -219.792)" fill="#af8484"/>
    <path id="Path_19032" data-name="Path 19032" d="M45.875,61.732h0A39.918,39.918,0,0,0,33.2,58.319c7.617-11.867,16.724-26.236,16.724-33.052A26.079,26.079,0,0,0,42.87,7.655,23.3,23.3,0,0,0,25.8,0,23.313,23.313,0,0,0,8.73,7.654,26.071,26.071,0,0,0,1.676,25.269c0,6.815,9.1,21.178,16.728,33.052A39.949,39.949,0,0,0,5.722,61.732C1.979,63.6,0,65.906,0,68.4c0,5.894,11.334,10.51,25.8,10.51S51.6,74.294,51.6,68.4c0-2.493-1.978-4.8-5.721-6.667M2.971,25.268h0C2.972,12.274,13.426,1.3,25.8,1.3s22.82,10.978,22.82,23.97c0,6.627-9.918,22.074-17.161,33.351-1.392,2.168-2.68,4.174-3.8,5.969-.684,1.089-1.307,2.1-1.856,3.024-.955-1.6-2.133-3.476-3.461-5.557q-.79-1.238-1.662-2.595l-.514-.8C12.908,47.369,2.971,31.9,2.971,25.268M25.8,77.612h0C12.518,77.612,1.3,73.393,1.3,68.4c0-4.043,7.5-7.745,17.888-8.863l.414.644q.836,1.3,1.61,2.512l.2.319.056.087c1.528,2.4,2.8,4.447,3.774,6.12a.53.53,0,0,0,.041.06l.007.01c.014.017.028.032.042.048l.014.016.04.035.024.02c.012.01.026.017.039.026s.019.014.03.02a.484.484,0,0,0,.044.022l.031.016.049.017.031.01c.024.006.049.011.074.015l.01,0a.667.667,0,0,0,.086.005h0c.02,0,.04,0,.061,0l.025,0a.642.642,0,0,0,.083-.017h0a.632.632,0,0,0,.154-.064h0a.671.671,0,0,0,.057-.037.121.121,0,0,1,.013-.009.543.543,0,0,0,.042-.036l.023-.02c.012-.013.024-.028.036-.042a.276.276,0,0,0,.02-.022.64.64,0,0,0,.047-.071h0l.023-.04c.639-1.107,1.411-2.372,2.287-3.77,1.1-1.763,2.373-3.736,3.746-5.871C42.805,60.653,50.3,64.354,50.3,68.4c0,5-11.22,9.214-24.5,9.214" fill="#1b395f"/>
    <path id="Path_19033" data-name="Path 19033" d="M56.076,1146.54c-1.373,2.136-2.642,4.108-3.746,5.871-.875,1.4-1.648,2.663-2.287,3.77l-.023.04h0a.625.625,0,0,1-.047.071.287.287,0,0,1-.02.022c-.012.014-.024.028-.036.042l-.023.02a.537.537,0,0,1-.042.036.109.109,0,0,0-.013.009c-.019.013-.037.026-.057.037h0a.631.631,0,0,1-.154.064h0a.662.662,0,0,1-.083.017l-.025,0c-.02,0-.04,0-.061,0h0a.661.661,0,0,1-.086-.005l-.01,0c-.025,0-.05-.009-.074-.015l-.031-.01-.049-.017-.031-.016a.442.442,0,0,1-.044-.022c-.011-.006-.02-.014-.03-.02s-.027-.017-.039-.027l-.024-.02c-.014-.012-.027-.023-.04-.035l-.014-.016c-.015-.016-.029-.032-.042-.048l-.007-.01a.545.545,0,0,1-.041-.06c-.97-1.673-2.246-3.721-3.774-6.12l-.056-.087-.2-.319q-.773-1.211-1.61-2.512l-.414-.644c-10.39,1.117-17.888,4.819-17.888,8.863,0,4.995,11.222,9.214,24.505,9.214h0c13.278,0,24.5-4.219,24.5-9.214,0-4.043-7.494-7.745-17.878-8.863m13.188,12.544a.648.648,0,1,1-.912-.922,3.435,3.435,0,0,0,1.191-2.405c0-1.7-1.5-3.211-4.445-4.494a.648.648,0,0,1,.518-1.189c3.466,1.508,5.224,3.419,5.224,5.683a4.669,4.669,0,0,1-1.575,3.327" transform="translate(-23.654 -1087.005)" fill="rgba(27,57,95,0.54)"/>
    <path id="Path_19034" data-name="Path 19034" d="M80.04,24.99c-12.374,0-22.829,10.977-22.829,23.97h0c0,6.636,9.937,22.1,17.192,33.393l.514.8q.872,1.357,1.662,2.595c1.328,2.081,2.506,3.953,3.461,5.557.549-.923,1.172-1.935,1.856-3.024,1.125-1.8,2.412-3.8,3.8-5.969C92.943,71.034,102.86,55.588,102.86,48.96c0-12.993-10.451-23.97-22.82-23.97m.17,32.695A10.977,10.977,0,1,1,91.188,46.708,10.977,10.977,0,0,1,80.21,57.685" transform="translate(-54.239 -23.692)" fill="#fff"/>
    <path id="Path_19035" data-name="Path 19035" d="M796.737,1219.312a4.669,4.669,0,0,1-1.575,3.327.648.648,0,0,1-.912-.922,3.434,3.434,0,0,0,1.191-2.405c0-1.7-1.5-3.211-4.445-4.494a.649.649,0,0,1,.518-1.189c3.466,1.508,5.224,3.419,5.224,5.683" transform="translate(-749.553 -1150.56)" fill="#1b395f"/>
    <path id="Path_19036" data-name="Path 19036" d="M310.7,242.808a10.977,10.977,0,1,1-10.978-10.978A10.977,10.977,0,0,1,310.7,242.808" transform="translate(-273.756 -219.792)" fill="#1b395f" fill-rule="evenodd"/>
    <path id="Path_19037" data-name="Path 19037" d="M320.734,273.138a9.316,9.316,0,1,1,9.316,9.316,9.316,9.316,0,0,1-9.316-9.316" transform="translate(-304.08 -250.122)" fill="#769eb1" fill-rule="evenodd"/>
    <path id="Path_19038" data-name="Path 19038" d="M361.691,290.1a9.318,9.318,0,0,1-12.725,12.959A9.317,9.317,0,1,0,361.691,290.1" transform="translate(-330.846 -275.039)" fill="#fff" fill-rule="evenodd" opacity="0.17"/>
    <path id="Path_19039" data-name="Path 19039" d="M340.991,292.808a8.224,8.224,0,0,1,14.743-5.013,8.224,8.224,0,1,0-13.65,9.112,8.186,8.186,0,0,1-1.093-4.1" transform="translate(-322.705 -268.94)" fill="#fff" fill-rule="evenodd" opacity="0.39"/>
  </g>
</svg>
