<svg xmlns="http://www.w3.org/2000/svg" width="21.806" height="26.894" viewBox="0 0 21.806 26.894">
  <path id="noun-all-wheel-drive-1670512" d="M131.689,3.635V5.089h4.361V3.635Zm7.269,18.172V20.354a2.181,2.181,0,0,1,2.181-2.181h1.454a2.181,2.181,0,0,1,2.181,2.181v4.361a2.181,2.181,0,0,1-2.181,2.181h-1.454a2.181,2.181,0,0,1-2.181-2.181V23.261H137.5a1.454,1.454,0,0,1-1.454,1.454h-4.361a1.454,1.454,0,0,1-1.454-1.454h-1.454v1.454A2.181,2.181,0,0,1,126.6,26.9h-1.454a2.181,2.181,0,0,1-2.181-2.181V20.354a2.181,2.181,0,0,1,2.181-2.181H126.6a2.181,2.181,0,0,1,2.181,2.181v1.454h1.454a1.454,1.454,0,0,1,1.454-1.454h1.454V6.543h-1.454a1.454,1.454,0,0,1-1.454-1.454h-1.454V6.543A2.181,2.181,0,0,1,126.6,8.724h-1.454a2.181,2.181,0,0,1-2.181-2.181V2.182A2.181,2.181,0,0,1,125.147,0H126.6a2.181,2.181,0,0,1,2.181,2.181V3.635h1.454a1.454,1.454,0,0,1,1.454-1.454h4.361A1.454,1.454,0,0,1,137.5,3.635h1.454V2.182A2.181,2.181,0,0,1,141.138,0h1.454a2.181,2.181,0,0,1,2.181,2.181V6.543a2.181,2.181,0,0,1-2.181,2.181h-1.454a2.181,2.181,0,0,1-2.181-2.181V5.089H137.5a1.454,1.454,0,0,1-1.454,1.454H134.6V20.354h1.454a1.454,1.454,0,0,1,1.454,1.454Zm-7.269,0v1.454h4.361V21.807ZM125.147,1.455a.727.727,0,0,0-.727.727V6.543a.727.727,0,0,0,.727.727H126.6a.727.727,0,0,0,.727-.727V2.181a.727.727,0,0,0-.727-.727Zm15.991,0a.727.727,0,0,0-.727.727V6.543a.727.727,0,0,0,.727.727h1.454a.727.727,0,0,0,.727-.727V2.181a.727.727,0,0,0-.727-.727ZM125.147,19.627a.727.727,0,0,0-.727.727v4.361a.727.727,0,0,0,.727.727H126.6a.727.727,0,0,0,.727-.727V20.353a.727.727,0,0,0-.727-.727Zm15.991,0a.727.727,0,0,0-.727.727v4.361a.727.727,0,0,0,.727.727h1.454a.727.727,0,0,0,.727-.727V20.353a.727.727,0,0,0-.727-.727Z" transform="translate(-122.966 -0.001)" fill="#1b395f"/>
</svg>
