<svg xmlns="http://www.w3.org/2000/svg" width="31.215" height="28.009" viewBox="0 0 31.215 28.009">
  <g id="noun-fuel-2714063" transform="translate(-90.401 -47.061)">
    <path id="Path_19177" data-name="Path 19177" d="M97.006,47.061h8.442a4.267,4.267,0,0,1,4.257,4.257v3.464a3.193,3.193,0,0,1,3.465,3.531,54.884,54.884,0,0,1-.8,5.5c-.611,5.425,3.866,5.191,4.224,2.011a13.584,13.584,0,0,0-.12-2.124c-.364-2.861-.921-7.254-.589-9.091.653-3.62.518-5.6,4.445-7.3a.924.924,0,0,1,.732,1.7,5.57,5.57,0,0,0-1.86,1.209c1.636,2.111,1.37,3.511,1.443,6.23a.925.925,0,0,1-.9.946l-2.071.048c.112,1.886.413,4.26.637,6.026a10.373,10.373,0,0,1,.127,2.559c-.605,5.378-8.833,5.81-7.906-2.417.188-1.668.786-3.714.786-5.3,0-1.162-.418-1.692-1.609-1.682V70.184a3.345,3.345,0,0,1,2.348,3.184v1.7H90.4v-1.7a3.343,3.343,0,0,1,2.348-3.184V51.318a4.267,4.267,0,0,1,4.257-4.257Zm-2.4,5.26h13.244v-1a2.411,2.411,0,0,0-2.4-2.4H97.006a2.411,2.411,0,0,0-2.4,2.4v1Zm13.244,1.856H94.6V70.036h13.244Zm-8.243,3.214a5.5,5.5,0,0,1,1.414,1.629,8.321,8.321,0,0,1,1.879-2.365c.413,0,3.664,4.572,3.664,6.6a3.5,3.5,0,0,1-3.7,3.614c-2.191,2.138-7.22,1.642-7.22-2.342,0-2.188,3.515-7.131,3.962-7.131Zm2.287,2.972a10.115,10.115,0,0,1,1.675,4.159,4.609,4.609,0,0,1-.076.846,2.073,2.073,0,0,0,1.631-2.118c0-1.029-1.558-3.516-2.224-4.445-.252.351-.631.925-1.006,1.558Zm-2.287-.647c-.72,1-2.405,3.694-2.405,4.806,0,3.158,4.81,3.155,4.81,0,0-1.112-1.685-3.8-2.405-4.806ZM118.214,52.1a20.517,20.517,0,0,0-.577,3.5l1.144-.026a6.852,6.852,0,0,0-.567-3.471Zm-9.493,19.8H93.734a1.484,1.484,0,0,0-1.469,1.323H110.19a1.484,1.484,0,0,0-1.469-1.323Z" fill="#1b395f"/>
  </g>
</svg>
