<svg xmlns="http://www.w3.org/2000/svg" width="37" height="24.572" viewBox="0 0 37 24.572">
  <g id="noun-engine-1387714_1_" data-name="noun-engine-1387714 (1)" transform="translate(-70.004 -94.043)">
    <path id="Path_19178" data-name="Path 19178" d="M105.574,102.228a.925.925,0,0,0-.831-.518h-3.307a.925.925,0,0,0-.925.925v1.959H99.2V102.63a.925.925,0,0,0-.921-.925l-2.038-.01-1.271-2.882a.925.925,0,0,0-.846-.552H89.152V95.893h2.611a.925.925,0,1,0,0-1.85H80.787a.925.925,0,0,0,0,1.85h3.191v2.369H79.626a.925.925,0,0,0-.805.47l-.931,1.649h-.634a3.044,3.044,0,0,0-3.04,3.04v2.017H72.081a.919.919,0,0,0-.227.031v-4.964a.925.925,0,1,0-1.85,0v11.4a.925.925,0,1,0,1.85,0v-4.647a.915.915,0,0,0,.227.031h2.135v4.484a3.083,3.083,0,0,0,3.08,3.079h2.968l3.493,3.493a.925.925,0,0,0,.654.271h13.86a.925.925,0,0,0,.925-.925v-2.664l1.316,0v1.747a.925.925,0,0,0,.923.925l3.377.006h0a.925.925,0,0,0,.829-.514,18.317,18.317,0,0,0,1.36-7.606,17.95,17.95,0,0,0-1.43-7.352ZM85.828,95.893H87.3v2.369H85.828Zm18.364,19.956-1.831,0V114.1a.924.924,0,0,0-.925-.925h0l-3.166.006a.925.925,0,0,0-.923.925v2.663H84.794L81.3,113.272a.925.925,0,0,0-.654-.271H77.3a1.231,1.231,0,0,1-1.23-1.23v-8.351a1.192,1.192,0,0,1,1.19-1.19H78.43a.925.925,0,0,0,.805-.47l.931-1.649h13.35l1.27,2.878a.924.924,0,0,0,.842.552l1.718.008v1.968a.925.925,0,0,0,.925.925h3.166a.925.925,0,0,0,.925-.925V103.56h1.766a17.345,17.345,0,0,1,1.025,6.021,18.729,18.729,0,0,1-.961,6.269Z" fill="#1b395f"/>
  </g>
</svg>
