<svg xmlns="http://www.w3.org/2000/svg" width="20.46" height="27.526" viewBox="0 0 20.46 27.526">
  <g id="noun-car-seat-1694451" transform="translate(0.295 0.25)">
    <path id="Path_19158" data-name="Path 19158" d="M157.62,40.9a3.882,3.882,0,0,0,1.039,1.942,7.978,7.978,0,0,0,2.574,2.077.336.336,0,0,0,.2.045H173.7a.172.172,0,0,0,.113-.045,8.619,8.619,0,0,0,2.574-2.077,3.964,3.964,0,0,0,1.039-1.942c.181-1.2-.316-3-1.671-3.364-.135-1.264-.226-2.145-.248-2.642-.023-.271-.045-.564-.09-.835s-.09-.564-.135-.835q-.034-.2-.068-.339v-.045a20.03,20.03,0,0,1-.135-5.215,3.412,3.412,0,0,0-.835-2.529,2.237,2.237,0,0,0-1.626-.745H170.2v-.926h.61a1.343,1.343,0,0,0,1.016-.452.951.951,0,0,0,.2-.835l-.79-3.319a1.209,1.209,0,0,0-1.219-.881h-4.9a1.209,1.209,0,0,0-1.219.881l-.723,3.319a.951.951,0,0,0,.2.835,1.269,1.269,0,0,0,1.016.452H165v.926h-2.235a2.282,2.282,0,0,0-1.513.723,3.306,3.306,0,0,0-.835,2.484,13.687,13.687,0,0,1-.384,4.787l-.023.068c-.045.181-.113.384-.181.632-.2.768-.316,1.355-.339,1.468a11.7,11.7,0,0,0,0,2.958h-.068c-1.468.339-2.009,2.213-1.806,3.432Zm1.716,1.377a2.872,2.872,0,0,1-.835-1.49c-.135-.881.226-2.213,1.129-2.393a1.837,1.837,0,0,1,1.806,1.016v4.629a7.93,7.93,0,0,1-2.1-1.761Zm13.457,1.806H162.339V39.663a.172.172,0,0,0,.045-.113H172.77v4.538Zm-9.144-12.44h7.812v7.022h-7.812Zm12.87,9.122a3.233,3.233,0,0,1-.835,1.49,7.2,7.2,0,0,1-1.987,1.693V39.527a1.943,1.943,0,0,1,1.513-1.151c.045,0,.068.023.113.023h.09c.858.135,1.242,1.535,1.106,2.371Zm-3.951-15.488a1.268,1.268,0,0,1,.948.452,2.451,2.451,0,0,1,.587,1.851,20.89,20.89,0,0,0,.158,5.486v.045a2.4,2.4,0,0,1,.068.316c.045.248.09.519.135.768a4.41,4.41,0,0,1,.068.768c.023.474.113,1.355.248,2.551a2.825,2.825,0,0,0-1.648,1.151h-.79V25.281Zm-8.489-2.845a.175.175,0,0,1-.023-.068l.723-3.319a.349.349,0,0,1,.339-.181h4.922c.2,0,.316.09.339.181l.723,3.319a.112.112,0,0,1-.023.068.377.377,0,0,1-.316.113h-6.389a.4.4,0,0,1-.294-.113Zm1.806,1.016h3.342v.926h-3.342Zm5.6,1.829v5.464h-7.835V25.281ZM160.4,34.673c.023-.113.113-.655.316-1.377.068-.248.135-.429.158-.564l.023-.068a15.036,15.036,0,0,0,.406-5.1,2.441,2.441,0,0,1,.61-1.829,1.49,1.49,0,0,1,.858-.452V38.647h-.722a2.874,2.874,0,0,0-1.626-1.129,11.667,11.667,0,0,1-.023-2.845Z" transform="translate(-157.579 -17.943)" fill="#1b395f" stroke="#1b395f" stroke-width="0.5"/>
  </g>
</svg>
