<svg id="Group_3818" data-name="Group 3818" xmlns="http://www.w3.org/2000/svg" xmlns:xlink="http://www.w3.org/1999/xlink" width="136.847" height="38.993" viewBox="0 0 136.847 38.993">
  <defs>
    <clipPath id="clip-path">
      <rect id="Rectangle_1" data-name="Rectangle 1" width="136.847" height="38.993" fill="none"/>
    </clipPath>
  </defs>
  <g id="Group_1" data-name="Group 1" clip-path="url(#clip-path)">
    <path id="Path_1" data-name="Path 1" d="M31.048,3.8A18.925,18.925,0,0,0,28.92,2.437,19.485,19.485,0,0,0,5.808,33.365c.093.09.18.176.269.266a19.467,19.467,0,0,0,27.463-.625c.152-.152.3-.312.441-.473A19.47,19.47,0,0,0,31.048,3.8M2.484,19.5A17.01,17.01,0,0,1,27.127,4.293L12.553,19.37l12.117,9.2A39.408,39.408,0,0,0,6.722,30.724,16.946,16.946,0,0,1,2.484,19.5m17.01,17.01A16.943,16.943,0,0,1,8.718,32.654a36.88,36.88,0,0,1,20.522-.735l1.465.371a16.956,16.956,0,0,1-11.21,4.218m12.5-5.488L16.272,19.073,29.306,5.605a16.983,16.983,0,0,1,2.687,25.416" transform="translate(0 0)" fill="#1b395f"/>
    <path id="Path_2" data-name="Path 2" d="M1282.532,69.416v8.491h-1.977V68.424h.988a.99.99,0,0,1,.988.992" transform="translate(-1145.685 -61.217)" fill="#1b395f"/>
    <path id="Path_3" data-name="Path 3" d="M1030.105,69.416v8.491H1027l-.043-.016h-10.851l-.039.016h-.578a2.815,2.815,0,0,1-1.469-.367,2.227,2.227,0,0,1-.73-.711,2.04,2.04,0,0,1-.574.7,2.008,2.008,0,0,1-1.226.379h-.613a2.824,2.824,0,0,1-1.469-.367,2.225,2.225,0,0,1-.73-.711,1.9,1.9,0,0,1-1.8,1.078h-1.164a3.158,3.158,0,0,1-.762,2.144,3.059,3.059,0,0,1-2.293.8c-.207,0-.352,0-.445-.008l-.207-.012V79.158l.238.023c.047,0,.121,0,.226,0a1.167,1.167,0,0,0,.949-.351,1.812,1.812,0,0,0,.313-1.172V72.279h1a.989.989,0,0,1,.988.988V76.2h1.172a1.153,1.153,0,0,0,.914-.344,1.654,1.654,0,0,0,.316-1.1v-2.48h.992a.99.99,0,0,1,.992.988v1.492a1.655,1.655,0,0,0,.312,1.1,1.136,1.136,0,0,0,.906.344h.18a1.154,1.154,0,0,0,.914-.344,1.655,1.655,0,0,0,.316-1.1v-2.48h.992a.99.99,0,0,1,.992.988v1.492a1.655,1.655,0,0,0,.312,1.1,1.136,1.136,0,0,0,.906.344h.086l.043-.016h7.156a1.109,1.109,0,0,0,.851-.285,1.4,1.4,0,0,0,0-1.664,1.11,1.11,0,0,0-.851-.289h-6.273V72.685l3.2-4.261.7.523a.924.924,0,0,1,.125,1.3l-1.461,2h3.719a3.285,3.285,0,0,1,2.3.727,2.589,2.589,0,0,1,.793,2,2.551,2.551,0,0,1-.145.891,1.869,1.869,0,0,1-.152.32h1.121l.039.016h.945V68.424h.988a.99.99,0,0,1,.988.992" transform="translate(-896.473 -61.217)" fill="#1b395f"/>
    <path id="Path_4" data-name="Path 4" d="M1105.891,60.676h-1.863v-1.6h.953a.91.91,0,0,1,.684.246.924.924,0,0,1,.226.7Z" transform="translate(-987.749 -52.856)" fill="#1b395f"/>
    <path id="Path_5" data-name="Path 5" d="M1072.91,168.778h1.859v1.594h-.949a.917.917,0,0,1-.684-.242.933.933,0,0,1-.227-.7Z" transform="translate(-959.908 -151.002)" fill="#1b395f"/>
    <path id="Path_6" data-name="Path 6" d="M1093.243,79.108h-1.864v-1.6h.953a.91.91,0,0,1,.684.246.944.944,0,0,1,.227.7Z" transform="translate(-976.433 -69.346)" fill="#1b395f"/>
    <path id="Path_7" data-name="Path 7" d="M1113.671,77.509h.953a.916.916,0,0,1,.684.246.944.944,0,0,1,.226.7v.648h-1.863Z" transform="translate(-996.377 -69.346)" fill="#1b395f"/>
    <path id="Path_8" data-name="Path 8" d="M1050.62,168.778h1.863v1.594h-.953a.917.917,0,0,1-.683-.242.933.933,0,0,1-.227-.7Z" transform="translate(-939.966 -151.002)" fill="#1b395f"/>
    <path id="Path_9" data-name="Path 9" d="M905.728,192.475h1.863v1.6h-.953a.916.916,0,0,1-.684-.246.94.94,0,0,1-.226-.7Z" transform="translate(-810.334 -172.203)" fill="#1b395f"/>
    <path id="Path_10" data-name="Path 10" d="M567.66,100.048v5.043a3.3,3.3,0,0,1-.766,2.367,3.053,3.053,0,0,1-2.293.8c-.2,0-.352,0-.441-.008l-.211-.012v-1.676l.242.023c.043,0,.121,0,.226,0a1.159,1.159,0,0,0,.945-.352,1.812,1.812,0,0,0,.312-1.172V99.056h1a.99.99,0,0,1,.988.992" transform="translate(-504.553 -88.623)" fill="#1b395f"/>
    <path id="Path_11" data-name="Path 11" d="M437.048,100.048v5.265h-7.929a3.548,3.548,0,0,1-2.707-.945,3.971,3.971,0,0,1-.867-2.777v-.223h1.035a1,1,0,0,1,.984.879,2.392,2.392,0,0,0,.133.543,1.178,1.178,0,0,0,.492.617,1.863,1.863,0,0,0,.93.2h5.949V99.056h.992a.993.993,0,0,1,.988.992" transform="translate(-380.726 -88.623)" fill="#1b395f"/>
    <path id="Path_12" data-name="Path 12" d="M913.141,94.025a.989.989,0,0,1-.988.988h-.992V92.725a3.356,3.356,0,0,0-.348-.016,1.978,1.978,0,0,0-1.074.246.74.74,0,0,0-.3.652,2.112,2.112,0,0,0,.09.582c.09.3.2.637.34,1l.09.258a10.567,10.567,0,0,1,.359,1.172,4.385,4.385,0,0,1,.133,1.117,3.208,3.208,0,0,1-.477,1.766,3.111,3.111,0,0,1-1.4,1.156,5.088,5.088,0,0,1-2.105.4,4.6,4.6,0,0,1-2.156-.469,3.176,3.176,0,0,1-1.4-1.363,4.3,4.3,0,0,1-.476-2.105v-.664h.988a1,1,0,0,1,1,1,2.186,2.186,0,0,0,.52,1.336,2,2,0,0,0,1.535.566,2.949,2.949,0,0,0,1.094-.191,1.549,1.549,0,0,0,.687-.547,1.491,1.491,0,0,0,.25-.867,5.065,5.065,0,0,0-.4-1.707l-.09-.238c-.152-.4-.32-.863-.422-1.242a3.861,3.861,0,0,1-.145-1.031,2.25,2.25,0,0,1,.891-1.879,4.245,4.245,0,0,1,2.523-.641,18.979,18.979,0,0,1,2.086.137l.2.023Z" transform="translate(-807.385 -81.425)" fill="#1b395f"/>
    <path id="Path_13" data-name="Path 13" d="M638.4,69.416v8.491h-3.613a2.825,2.825,0,0,1-1.469-.367,2.267,2.267,0,0,1-.73-.711,1.9,1.9,0,0,1-1.8,1.078h-1.352a2.724,2.724,0,0,1-1.414-.355,2.184,2.184,0,0,1-.7-.656,1.976,1.976,0,0,1-.547.687,1.883,1.883,0,0,1-1.2.387,1.97,1.97,0,0,1-1.2-.375.575.575,0,1,0-1.141.008,2.111,2.111,0,0,1-1.25.367,2.541,2.541,0,0,1-1.4-.379,2.167,2.167,0,0,1-.683-.711,1.928,1.928,0,0,1-1.777,1.027H616.75a2.834,2.834,0,0,1-1.469-.367,2.214,2.214,0,0,1-.727-.711,2.051,2.051,0,0,1-.578.7,2.009,2.009,0,0,1-1.227.379h-.473c-1.9,0-2.9-1.113-2.9-3.215V68.424h.988a.994.994,0,0,1,.992.992v5.277a1.8,1.8,0,0,0,.3,1.176,1.167,1.167,0,0,0,.93.336h.168a1.148,1.148,0,0,0,.914-.344,1.633,1.633,0,0,0,.316-1.1v-2.48h1a.989.989,0,0,1,.988.988v1.492a1.633,1.633,0,0,0,.316,1.1,1.127,1.127,0,0,0,.9.344h.941a1.148,1.148,0,0,0,.914-.344,1.633,1.633,0,0,0,.316-1.1v-2.48h.988a.99.99,0,0,1,.992.988v1.492a2.068,2.068,0,0,0,.262,1.168.77.77,0,0,0,.68.34.859.859,0,0,0,.742-.34,2.019,2.019,0,0,0,.273-1.168v-2.48h.988a.987.987,0,0,1,.988.988v1.492a2.676,2.676,0,0,0,.2,1.191.489.489,0,0,0,.465.316.538.538,0,0,0,.5-.316,2.613,2.613,0,0,0,.207-1.191v-2.48h.988a.99.99,0,0,1,.992.988v1.492a1.633,1.633,0,0,0,.316,1.1,1.132,1.132,0,0,0,.9.344h.941a1.153,1.153,0,0,0,.914-.344,1.633,1.633,0,0,0,.316-1.1V68.424h1a.993.993,0,0,1,.988.992v5.343a1.655,1.655,0,0,0,.312,1.1,1.136,1.136,0,0,0,.906.344h1.188V68.424h.988a.994.994,0,0,1,.992.992" transform="translate(-545.198 -61.217)" fill="#1b395f"/>
    <path id="Path_14" data-name="Path 14" d="M547.68,77.907H545.7V68.423h.988a.99.99,0,0,1,.988.992Z" transform="translate(-488.229 -61.217)" fill="#1b395f"/>
    <path id="Path_15" data-name="Path 15" d="M928.015,192.475h1.863v1.6h-.953a.9.9,0,0,1-.683-.246.924.924,0,0,1-.227-.7Z" transform="translate(-830.274 -172.203)" fill="#1b395f"/>
    <path id="Path_16" data-name="Path 16" d="M666,168.778h1.863v1.594h-.953a.918.918,0,0,1-.684-.242.934.934,0,0,1-.227-.7Z" transform="translate(-595.859 -151.002)" fill="#1b395f"/>
    <path id="Path_17" data-name="Path 17" d="M643.715,168.778h1.863v1.594h-.953a.923.923,0,0,1-.683-.242.949.949,0,0,1-.227-.7Z" transform="translate(-575.918 -151.002)" fill="#1b395f"/>
    <path id="Path_18" data-name="Path 18" d="M482.444,93.2h-1.863V91.6h.953a.917.917,0,0,1,.684.242.934.934,0,0,1,.227.7Z" transform="translate(-429.965 -81.954)" fill="#1b395f"/>
    <path id="Path_19" data-name="Path 19" d="M460.187,93.2h-1.859V91.6h.949a.917.917,0,0,1,.684.242.934.934,0,0,1,.227.7Z" transform="translate(-410.056 -81.954)" fill="#1b395f"/>
    <path id="Path_20" data-name="Path 20" d="M431.943,247.746l-.6-1.76-3.047.05-.463,1.661-1.92.05,2.709-7.921a.82.82,0,0,1,.851-.6h1.315l2.983,8.524Zm-1.088-3.274-1.012-3.254-1.012,3.254Z" transform="translate(-381.057 -214.027)" fill="#6f6f6e"/>
    <path id="Path_21" data-name="Path 21" d="M507.444,247.747v-8.524h.879a.8.8,0,0,1,.58.251.835.835,0,0,1,.252.616v7.657Z" transform="translate(-453.999 -214.028)" fill="#6f6f6e"/>
    <path id="Path_22" data-name="Path 22" d="M570.96,247.747l-2.089-2.994c-.273-.383-.529-.578-.76-.578a.437.437,0,0,0-.148.027.541.541,0,0,0-.416.535v3.009h-1.78v-7.561a.97.97,0,0,1,.261-.674.843.843,0,0,1,.641-.289h.878v3.333l3.015-3.31,2.293-.023-3.32,3.516,3.569,5.008Z" transform="translate(-506.179 -214.028)" fill="#6f6f6e"/>
    <path id="Path_23" data-name="Path 23" d="M648.737,262.821a2.75,2.75,0,0,1-1.287-.287,1.9,1.9,0,0,1-1.007-1.843,1.946,1.946,0,0,1,.673-1.548,4.01,4.01,0,0,1,2.09-.666c.632-.075.952-.27.952-.58-.028-.323-.337-.483-.945-.483-.514,0-.809.135-.876.4l-1.72.053.013-.082c.189-1.238,1.036-1.867,2.515-1.867,1.76,0,2.669.632,2.7,1.875v2.218a2.5,2.5,0,0,1-1.19,2.374,4,4,0,0,1-1.6.418q-.164.013-.32.013m1.444-3.373a6.766,6.766,0,0,1-1.161.349c-.6.121-.889.4-.889.845a.645.645,0,0,0,.714.7,1.356,1.356,0,0,0,.989-.364,1.429,1.429,0,0,0,.348-1.033Z" transform="translate(-578.357 -228.969)" fill="#6f6f6e"/>
    <path id="Path_24" data-name="Path 24" d="M710.6,247.709q-.445,0-.926-.046c-.632-.06-.945-.478-.929-1.241v-7.2h.878a.789.789,0,0,1,.582.263.882.882,0,0,1,.25.628v.964h.946v.432a.866.866,0,0,1-.252.64.832.832,0,0,1-.6.25h-.091v3.542c0,.234.12.338.39.338h.556V247.6a2.536,2.536,0,0,1-.8.1" transform="translate(-634.102 -214.028)" fill="#6f6f6e"/>
    <path id="Path_25" data-name="Path 25" d="M749.2,247.747v-3.42a2.031,2.031,0,0,0-.307-1.278,1.089,1.089,0,0,0-.915-.456,1.073,1.073,0,0,0-.935.451,2.247,2.247,0,0,0-.333,1.283v3.42H745v-8.524h.855a.781.781,0,0,1,.856.891v1.762a2.46,2.46,0,0,1,1.847-.879,3.073,3.073,0,0,1,1.06.207c.9.348,1.339,1.255,1.292,2.694v3.85Z" transform="translate(-666.531 -214.028)" fill="#6f6f6e"/>
    <path id="Path_26" data-name="Path 26" d="M812.156,237.208v-1.419h.879a.849.849,0,0,1,.632.218.862.862,0,0,1,.2.649v.552Z" transform="translate(-726.618 -210.955)" fill="#6f6f6e"/>
    <path id="Path_27" data-name="Path 27" d="M812.156,263.508v-6.669h.879a.76.76,0,0,1,.832.866v5.8Z" transform="translate(-726.618 -229.788)" fill="#6f6f6e"/>
    <path id="Path_28" data-name="Path 28" d="M839.423,263.508v-3.443c.047-2.14,1.15-3.225,3.278-3.225h.3v1.852h-.6c-.837,0-1.244.441-1.244,1.349v3.467Z" transform="translate(-751.013 -229.788)" fill="#6f6f6e"/>
    <path id="Path_29" data-name="Path 29" d="M884.431,237.208v-1.419h.878a.844.844,0,0,1,.63.218.861.861,0,0,1,.2.649v.552Z" transform="translate(-791.281 -210.955)" fill="#6f6f6e"/>
    <path id="Path_30" data-name="Path 30" d="M884.431,263.508v-6.669h.878a.76.76,0,0,1,.832.866v5.8Z" transform="translate(-791.281 -229.788)" fill="#6f6f6e"/>
    <path id="Path_31" data-name="Path 31" d="M948.909,247.747V241.5l-1.5,6.191-1.754.055-1.566-6.264v6.264H942.4v-7.561a.967.967,0,0,1,.262-.674.833.833,0,0,1,.638-.289H944.9l1.613,6.167,1.5-6.112,2.584-.055v8.524Z" transform="translate(-843.146 -214.028)" fill="#6f6f6e"/>
    <path id="Path_32" data-name="Path 32" d="M1034.127,262.831c-1.93,0-2.909-1.159-2.909-3.444s.979-3.467,2.909-3.467,2.91,1.167,2.91,3.467-.98,3.444-2.91,3.444m0-5.323c-.789,0-1.174.614-1.174,1.88.015,1.232.392,1.831,1.151,1.831s1.137-.615,1.151-1.88c0-1.232-.368-1.831-1.129-1.831" transform="translate(-922.608 -228.967)" fill="#6f6f6e"/>
    <path id="Path_33" data-name="Path 33" d="M1099.331,247.709c-.3,0-.6-.016-.924-.046-.634-.06-.946-.478-.93-1.241v-7.2h.878a.787.787,0,0,1,.583.263.879.879,0,0,1,.25.628v.964h.946v.432a.866.866,0,0,1-.252.64.826.826,0,0,1-.6.25h-.091v3.542c0,.234.12.338.391.338h.555V247.6a2.538,2.538,0,0,1-.8.1" transform="translate(-981.888 -214.028)" fill="#6f6f6e"/>
    <path id="Path_34" data-name="Path 34" d="M1136.627,262.831c-1.93,0-2.909-1.159-2.909-3.444s.979-3.467,2.909-3.467,2.909,1.167,2.909,3.467-.979,3.444-2.909,3.444m0-5.323c-.791,0-1.175.614-1.175,1.88.014,1.232.392,1.831,1.152,1.831s1.137-.615,1.151-1.88c0-1.232-.369-1.831-1.129-1.831" transform="translate(-1014.313 -228.967)" fill="#6f6f6e"/>
    <path id="Path_35" data-name="Path 35" d="M1199.966,263.508v-3.443c.047-2.14,1.15-3.225,3.278-3.225h.3v1.852h-.6c-.837,0-1.244.441-1.244,1.349v3.467Z" transform="translate(-1073.583 -229.788)" fill="#6f6f6e"/>
    <path id="Path_36" data-name="Path 36" d="M1247.72,262.807a2.948,2.948,0,0,1-2.008-.6,2.073,2.073,0,0,1-.74-1.739V260.4h1.687a1.094,1.094,0,0,0,.386.735,1.45,1.45,0,0,0,.906.229c.62,0,.921-.181.921-.555,0-.2-.27-.494-1.557-.726-1.416-.262-2.142-.934-2.158-2a2.017,2.017,0,0,1,.693-1.6,2.991,2.991,0,0,1,1.87-.571,3.126,3.126,0,0,1,1.959.569,2.171,2.171,0,0,1,.765,1.642l0,.074h-1.067a.75.75,0,0,1-.758-.457c-.1-.256-.392-.386-.88-.386-.851,0-.851.328-.851.435,0,.3.392.525,1.165.677a4.439,4.439,0,0,1,2.136.862,1.736,1.736,0,0,1,.46,1.206,2,2,0,0,1-.766,1.694,3.508,3.508,0,0,1-2.166.569" transform="translate(-1113.849 -228.967)" fill="#6f6f6e"/>
  </g>
</svg>
