<svg id="Group_3307" data-name="Group 3307" xmlns="http://www.w3.org/2000/svg" xmlns:xlink="http://www.w3.org/1999/xlink" width="426.948" height="276.628" viewBox="0 0 426.948 276.628">
  <defs>
    <clipPath id="clip-path">
      <rect id="Rectangle_2606" data-name="Rectangle 2606" width="426.948" height="276.628" fill="none"/>
    </clipPath>
    <clipPath id="clip-path-2">
      <rect id="Rectangle_2421" data-name="Rectangle 2421" width="426.948" height="276.628" fill="#1b395f"/>
    </clipPath>
    <clipPath id="clip-path-3">
      <rect id="Rectangle_2420" data-name="Rectangle 2420" width="366.122" height="269.809" fill="#1b395f"/>
    </clipPath>
    <clipPath id="clip-path-7">
      <rect id="Rectangle_2589" data-name="Rectangle 2589" width="53.575" height="53.574" fill="none"/>
    </clipPath>
    <clipPath id="clip-path-8">
      <rect id="Rectangle_2590" data-name="Rectangle 2590" width="63.849" height="63.849" fill="none"/>
    </clipPath>
    <clipPath id="clip-path-9">
      <rect id="Rectangle_2591" data-name="Rectangle 2591" width="45.196" height="45.195" fill="none"/>
    </clipPath>
    <clipPath id="clip-path-10">
      <rect id="Rectangle_2592" data-name="Rectangle 2592" width="53.574" height="53.574" fill="none"/>
    </clipPath>
    <clipPath id="clip-path-14">
      <path id="Path_19018" data-name="Path 19018" d="M154.238,171.4c-31.772.883-74.576,12.8-82.518,15.887s-11.473,3.971-9.708,6.177,11.474,10.15,10.15,13.68-22.946,22.946-24.27,26.035,4.412,13.68,5.295,16.327,5.736,3.53,9.707,3.972,286.388,0,286.388,0,3.972-4.854,3.09-11.033-1.829-14.326-5.808-19.547c-3.22-4.226-6.549-8.694-14.933-9.577-5.266-.554-52.071-13.238-53.4-13.679,0,0-7.061-4.413-39.273-15-29.082-9.56-48.818-13.368-75.755-13.368-2.9,0-5.881.044-8.97.129" transform="translate(-47.693 -171.267)" fill="#1b395f"/>
    </clipPath>
    <clipPath id="clip-path-15">
      <path id="Path_19020" data-name="Path 19020" d="M156.261,171.345q-1,.022-2.023.051c-31.772.883-74.576,12.8-82.518,15.887-6.609,2.569-10.163,3.613-10.154,5.161a1.68,1.68,0,0,0,.445,1.016c1.654,2.069,10.291,9.179,10.273,12.968a2.039,2.039,0,0,1-.123.711c-1.323,3.53-22.946,22.946-24.27,26.035a2.965,2.965,0,0,0-.2,1.157c-.012,4,4.7,12.793,5.493,15.17.882,2.648,5.736,3.53,9.707,3.972s286.388,0,286.388,0a16,16,0,0,0,3.217-9.195,12.731,12.731,0,0,0-.127-1.838c-.883-6.178-1.829-14.326-5.808-19.547-3.22-4.226-6.549-8.694-14.933-9.577-5.266-.554-52.071-13.238-53.4-13.679,0,0-7.061-4.413-39.273-15-16.518-5.43-30.02-9-43.539-11.08a208.373,208.373,0,0,0-32.216-2.288c-2.263,0-4.575.027-6.947.078" transform="translate(-47.693 -171.267)" fill="none"/>
    </clipPath>
    <clipPath id="clip-path-16">
      <rect id="Rectangle_2597" data-name="Rectangle 2597" width="304.806" height="82.403" fill="none"/>
    </clipPath>
    <clipPath id="clip-path-18">
      <path id="Path_19032" data-name="Path 19032" d="M132.032,171.4c-31.771.883-74.576,12.8-82.519,15.887s-11.473,3.971-9.707,6.177,11.473,10.15,10.15,13.68-22.946,22.946-24.271,26.035,4.414,13.68,5.3,16.327,5.736,3.53,9.707,3.972,286.388,0,286.388,0,3.971-4.854,3.089-11.033-1.828-14.326-5.807-19.547c-3.22-4.226-6.549-8.694-14.934-9.577-5.266-.554-52.07-13.238-53.394-13.679,0,0-7.06-4.413-39.273-15-29.081-9.56-48.818-13.368-75.756-13.368-2.9,0-5.88.044-8.969.129" transform="translate(-25.486 -171.267)" fill="none"/>
    </clipPath>
    <clipPath id="clip-path-19">
      <rect id="Rectangle_2601" data-name="Rectangle 2601" width="304.806" height="42.902" fill="none"/>
    </clipPath>
    <clipPath id="clip-path-21">
      <path id="Path_19037" data-name="Path 19037" d="M134.562,177.183c-12.68.248-45,6.216-45,6.216l17.653,18.648H237V197.82s-26.6-10.444-54.7-15.913c-21.239-4.134-30.4-4.86-39.088-4.86-2.8,0-5.555.076-8.65.136" transform="translate(-89.56 -177.047)" fill="none"/>
    </clipPath>
  </defs>
  <g id="Group_3306" data-name="Group 3306" clip-path="url(#clip-path)">
    <g id="Group_3255" data-name="Group 3255" transform="translate(0 3.677)" opacity="0.13">
      <g id="Group_3254" data-name="Group 3254" clip-path="url(#clip-path-2)">
        <path id="Path_18955" data-name="Path 18955" d="M367.864,96.682S336.409,37.167,270.744,14.1,174.737,11.17,141.091,32.975c-26.48,17.161-47.216,42.015-68.908,64.017C52.321,117.136,23.2,132.75,14.014,160.645c-11.62,35.281,14.706,73.41,45.948,93.9,43.6,28.586,85.865,11.095,131.4,4.377l.258-.038a137.049,137.049,0,0,1,19.969-1.591c52.875.113,90.825,37.449,129.342-.99S385.579,143,367.864,96.682" transform="translate(-0.072 -0.025)" fill="#1b395f"/>
        <g id="Group_3253" data-name="Group 3253" transform="translate(11.445 3.834)" opacity="0.75">
          <g id="Group_3252" data-name="Group 3252" transform="translate(0)">
            <g id="Group_3251" data-name="Group 3251" clip-path="url(#clip-path-3)">
              <path id="Path_18956" data-name="Path 18956" d="M367.864,96.682S336.409,37.167,270.744,14.1,174.737,11.17,141.091,32.975c-26.48,17.161-47.216,42.015-68.908,64.017C52.321,117.136,23.2,132.75,14.014,160.645c-11.62,35.281,14.706,73.41,45.948,93.9,43.6,28.586,85.865,11.095,131.4,4.377l.258-.038a137.049,137.049,0,0,1,19.969-1.591c52.875.113,90.825,37.449,129.342-.99S385.579,143,367.864,96.682" transform="translate(-11.213 -3.859)" fill="#1b395f"/>
            </g>
          </g>
        </g>
      </g>
    </g>
    <g id="Group_3257" data-name="Group 3257">
      <g id="Group_3256" data-name="Group 3256" clip-path="url(#clip-path)">
        <path id="Path_18957" data-name="Path 18957" d="M348.274,86.338c-3.174-1.731-4.616-.288-5.77-1.731s3.174-5.194-5.483-8.944c0,0-.576-8.078-12.406-8.367s-8.655,8.079-11.829,10.1-4.039-1.154-7.214.865-1.731,6.059-4.327,6.636-6.059-2.6-9.233-.577-3.174,3.751-4.616,3.751-4.328-1.154-6.059,0-3.751,2.6-3.751,2.6h72.995s.865-2.6-2.308-4.328" transform="translate(-1.777 -0.431)" fill="#fff"/>
        <path id="Path_18958" data-name="Path 18958" d="M348.274,86.338c-3.174-1.731-4.616-.288-5.77-1.731s3.174-5.194-5.483-8.944c0,0-.576-8.078-12.406-8.367s-8.655,8.079-11.829,10.1-4.039-1.154-7.214.865-1.731,6.059-4.327,6.636-6.059-2.6-9.233-.577-3.174,3.751-4.616,3.751-4.328-1.154-6.059,0-3.751,2.6-3.751,2.6h72.995S351.447,88.069,348.274,86.338Z" transform="translate(-1.777 -0.431)" fill="none" stroke="#263238" stroke-width="1"/>
        <path id="Path_18959" data-name="Path 18959" d="M167.642,111.4c-1.441-.786-2.1-.131-2.619-.786s1.441-2.357-2.488-4.06c0,0-.262-3.666-5.632-3.8s-3.929,3.667-5.369,4.583-1.833-.524-3.274.392-.786,2.75-1.964,3.013-2.75-1.178-4.19-.262-1.441,1.7-2.1,1.7-1.964-.524-2.75,0-1.7,1.178-1.7,1.178H168.69a1.69,1.69,0,0,0-1.047-1.964" transform="translate(-0.868 -0.658)" fill="#fff"/>
        <path id="Path_18960" data-name="Path 18960" d="M167.642,111.4c-1.441-.786-2.1-.131-2.619-.786s1.441-2.357-2.488-4.06c0,0-.262-3.666-5.632-3.8s-3.929,3.667-5.369,4.583-1.833-.524-3.274.392-.786,2.75-1.964,3.013-2.75-1.178-4.19-.262-1.441,1.7-2.1,1.7-1.964-.524-2.75,0-1.7,1.178-1.7,1.178H168.69A1.69,1.69,0,0,0,167.642,111.4Z" transform="translate(-0.868 -0.658)" fill="none" stroke="#263238" stroke-width="1"/>
        <path id="Path_18961" data-name="Path 18961" d="M194.58,27.415c-1.981-1.08-2.881-.18-3.6-1.08s1.981-3.242-3.421-5.583c0,0-.361-5.043-7.744-5.222s-5.4,5.043-7.382,6.3-2.522-.72-4.5.54-1.08,3.782-2.7,4.142-3.782-1.621-5.763-.361-1.98,2.341-2.881,2.341-2.7-.719-3.782,0-2.341,1.622-2.341,1.622h45.561a2.327,2.327,0,0,0-1.441-2.7" transform="translate(-0.963 -0.099)" fill="#fff"/>
        <path id="Path_18962" data-name="Path 18962" d="M194.58,27.415c-1.981-1.08-2.881-.18-3.6-1.08s1.981-3.242-3.421-5.583c0,0-.361-5.043-7.744-5.222s-5.4,5.043-7.382,6.3-2.522-.72-4.5.54-1.08,3.782-2.7,4.142-3.782-1.621-5.763-.361-1.98,2.341-2.881,2.341-2.7-.719-3.782,0-2.341,1.622-2.341,1.622h45.561A2.327,2.327,0,0,0,194.58,27.415Z" transform="translate(-0.963 -0.099)" fill="none" stroke="#263238" stroke-width="1"/>
      </g>
    </g>
    <rect id="Rectangle_2423" data-name="Rectangle 2423" width="8.103" height="8.165" transform="translate(57.481 126.384)" fill="none" stroke="#263238" stroke-width="1"/>
    <rect id="Rectangle_2424" data-name="Rectangle 2424" width="3.285" height="3.223" transform="translate(48.72 131.326)" fill="none" stroke="#263238" stroke-width="1"/>
    <g id="Group_3259" data-name="Group 3259">
      <g id="Group_3258" data-name="Group 3258" clip-path="url(#clip-path)">
        <path id="Path_18963" data-name="Path 18963" d="M381.646,177.967H350.931v-64.8h2.05v-6.709H281.014v6.709h2.493V209.54H264.629V2.775H199.9V159.14H176.238V141.83h6.2v-7.319H130.682V29.61h3.349V24.121H71.213V29.61h4.5V134.69H26.07v75.15H0" transform="translate(0 -0.018)" fill="none" stroke="#263238" stroke-width="1"/>
        <rect id="Rectangle_2425" data-name="Rectangle 2425" width="70.188" height="2.245" transform="translate(197.02 0.497)" fill="none" stroke="#263238" stroke-width="1"/>
      </g>
    </g>
    <rect id="Rectangle_2427" data-name="Rectangle 2427" width="7.906" height="8.463" transform="translate(81.338 35.691)" fill="none" stroke="#263238" stroke-width="1"/>
    <rect id="Rectangle_2428" data-name="Rectangle 2428" width="7.906" height="8.463" transform="translate(92.933 35.691)" fill="none" stroke="#263238" stroke-width="1"/>
    <rect id="Rectangle_2429" data-name="Rectangle 2429" width="7.906" height="8.463" transform="translate(104.529 35.691)" fill="none" stroke="#263238" stroke-width="1"/>
    <rect id="Rectangle_2430" data-name="Rectangle 2430" width="7.906" height="8.463" transform="translate(116.124 35.691)" fill="none" stroke="#263238" stroke-width="1"/>
    <rect id="Rectangle_2431" data-name="Rectangle 2431" width="7.906" height="8.463" transform="translate(81.338 49.109)" fill="none" stroke="#263238" stroke-width="1"/>
    <rect id="Rectangle_2432" data-name="Rectangle 2432" width="7.906" height="8.463" transform="translate(92.933 49.109)" fill="none" stroke="#263238" stroke-width="1"/>
    <rect id="Rectangle_2433" data-name="Rectangle 2433" width="7.906" height="8.463" transform="translate(104.529 49.109)" fill="none" stroke="#263238" stroke-width="1"/>
    <rect id="Rectangle_2434" data-name="Rectangle 2434" width="7.906" height="8.463" transform="translate(116.124 49.109)" fill="none" stroke="#263238" stroke-width="1"/>
    <rect id="Rectangle_2435" data-name="Rectangle 2435" width="7.906" height="8.463" transform="translate(81.338 62.526)" fill="none" stroke="#263238" stroke-width="1"/>
    <rect id="Rectangle_2436" data-name="Rectangle 2436" width="7.906" height="8.463" transform="translate(92.933 62.526)" fill="none" stroke="#263238" stroke-width="1"/>
    <rect id="Rectangle_2437" data-name="Rectangle 2437" width="7.906" height="8.463" transform="translate(104.529 62.526)" fill="none" stroke="#263238" stroke-width="1"/>
    <rect id="Rectangle_2438" data-name="Rectangle 2438" width="7.906" height="8.463" transform="translate(116.124 62.526)" fill="none" stroke="#263238" stroke-width="1"/>
    <rect id="Rectangle_2439" data-name="Rectangle 2439" width="7.906" height="8.463" transform="translate(81.338 75.944)" fill="none" stroke="#263238" stroke-width="1"/>
    <rect id="Rectangle_2440" data-name="Rectangle 2440" width="7.906" height="8.463" transform="translate(92.933 75.944)" fill="none" stroke="#263238" stroke-width="1"/>
    <rect id="Rectangle_2441" data-name="Rectangle 2441" width="7.906" height="8.463" transform="translate(104.529 75.944)" fill="none" stroke="#263238" stroke-width="1"/>
    <rect id="Rectangle_2442" data-name="Rectangle 2442" width="7.906" height="8.463" transform="translate(116.124 75.944)" fill="none" stroke="#263238" stroke-width="1"/>
    <rect id="Rectangle_2443" data-name="Rectangle 2443" width="7.906" height="8.463" transform="translate(81.338 89.361)" fill="none" stroke="#263238" stroke-width="1"/>
    <rect id="Rectangle_2444" data-name="Rectangle 2444" width="7.906" height="8.463" transform="translate(92.933 89.361)" fill="none" stroke="#263238" stroke-width="1"/>
    <rect id="Rectangle_2445" data-name="Rectangle 2445" width="7.906" height="8.463" transform="translate(104.529 89.361)" fill="none" stroke="#263238" stroke-width="1"/>
    <rect id="Rectangle_2446" data-name="Rectangle 2446" width="7.906" height="8.463" transform="translate(116.124 89.361)" fill="none" stroke="#263238" stroke-width="1"/>
    <rect id="Rectangle_2447" data-name="Rectangle 2447" width="7.906" height="8.463" transform="translate(81.338 102.779)" fill="none" stroke="#263238" stroke-width="1"/>
    <rect id="Rectangle_2448" data-name="Rectangle 2448" width="7.906" height="8.463" transform="translate(92.933 102.779)" fill="none" stroke="#263238" stroke-width="1"/>
    <rect id="Rectangle_2449" data-name="Rectangle 2449" width="7.906" height="8.463" transform="translate(104.529 102.779)" fill="none" stroke="#263238" stroke-width="1"/>
    <rect id="Rectangle_2450" data-name="Rectangle 2450" width="7.906" height="8.463" transform="translate(116.124 102.779)" fill="none" stroke="#263238" stroke-width="1"/>
    <rect id="Rectangle_2451" data-name="Rectangle 2451" width="7.906" height="8.463" transform="translate(81.338 116.196)" fill="none" stroke="#263238" stroke-width="1"/>
    <rect id="Rectangle_2452" data-name="Rectangle 2452" width="7.906" height="8.463" transform="translate(92.933 116.196)" fill="none" stroke="#263238" stroke-width="1"/>
    <rect id="Rectangle_2453" data-name="Rectangle 2453" width="7.906" height="8.463" transform="translate(104.529 116.196)" fill="none" stroke="#263238" stroke-width="1"/>
    <rect id="Rectangle_2454" data-name="Rectangle 2454" width="7.906" height="8.463" transform="translate(116.124 116.196)" fill="none" stroke="#263238" stroke-width="1"/>
    <rect id="Rectangle_2455" data-name="Rectangle 2455" width="7.906" height="8.463" transform="translate(81.338 129.614)" fill="none" stroke="#263238" stroke-width="1"/>
    <rect id="Rectangle_2456" data-name="Rectangle 2456" width="7.906" height="8.463" transform="translate(92.933 129.614)" fill="none" stroke="#263238" stroke-width="1"/>
    <rect id="Rectangle_2457" data-name="Rectangle 2457" width="7.906" height="8.463" transform="translate(104.529 129.614)" fill="none" stroke="#263238" stroke-width="1"/>
    <rect id="Rectangle_2458" data-name="Rectangle 2458" width="7.906" height="8.463" transform="translate(116.124 129.614)" fill="none" stroke="#263238" stroke-width="1"/>
    <rect id="Rectangle_2459" data-name="Rectangle 2459" width="7.906" height="8.463" transform="translate(81.338 141.887)" fill="none" stroke="#263238" stroke-width="1"/>
    <rect id="Rectangle_2460" data-name="Rectangle 2460" width="7.906" height="8.463" transform="translate(92.933 141.887)" fill="none" stroke="#263238" stroke-width="1"/>
    <rect id="Rectangle_2461" data-name="Rectangle 2461" width="7.906" height="8.463" transform="translate(104.529 141.887)" fill="none" stroke="#263238" stroke-width="1"/>
    <rect id="Rectangle_2462" data-name="Rectangle 2462" width="7.906" height="8.463" transform="translate(116.124 141.887)" fill="none" stroke="#263238" stroke-width="1"/>
    <rect id="Rectangle_2463" data-name="Rectangle 2463" width="7.906" height="8.463" transform="translate(81.338 155.305)" fill="none" stroke="#263238" stroke-width="1"/>
    <rect id="Rectangle_2464" data-name="Rectangle 2464" width="7.906" height="8.463" transform="translate(92.933 155.305)" fill="none" stroke="#263238" stroke-width="1"/>
    <rect id="Rectangle_2465" data-name="Rectangle 2465" width="7.906" height="8.463" transform="translate(104.529 155.305)" fill="none" stroke="#263238" stroke-width="1"/>
    <rect id="Rectangle_2466" data-name="Rectangle 2466" width="7.906" height="8.463" transform="translate(116.124 155.305)" fill="none" stroke="#263238" stroke-width="1"/>
    <rect id="Rectangle_2467" data-name="Rectangle 2467" width="7.906" height="8.463" transform="translate(81.338 168.722)" fill="none" stroke="#263238" stroke-width="1"/>
    <rect id="Rectangle_2468" data-name="Rectangle 2468" width="7.906" height="8.463" transform="translate(92.933 168.722)" fill="none" stroke="#263238" stroke-width="1"/>
    <rect id="Rectangle_2469" data-name="Rectangle 2469" width="7.906" height="8.463" transform="translate(104.529 168.722)" fill="none" stroke="#263238" stroke-width="1"/>
    <rect id="Rectangle_2470" data-name="Rectangle 2470" width="7.906" height="8.463" transform="translate(116.124 168.722)" fill="none" stroke="#263238" stroke-width="1"/>
    <rect id="Rectangle_2471" data-name="Rectangle 2471" width="7.906" height="8.463" transform="translate(81.338 182.14)" fill="none" stroke="#263238" stroke-width="1"/>
    <rect id="Rectangle_2472" data-name="Rectangle 2472" width="7.906" height="8.463" transform="translate(92.933 182.14)" fill="none" stroke="#263238" stroke-width="1"/>
    <rect id="Rectangle_2473" data-name="Rectangle 2473" width="7.906" height="8.463" transform="translate(104.529 182.14)" fill="none" stroke="#263238" stroke-width="1"/>
    <rect id="Rectangle_2474" data-name="Rectangle 2474" width="7.906" height="8.463" transform="translate(116.124 182.14)" fill="none" stroke="#263238" stroke-width="1"/>
    <rect id="Rectangle_2475" data-name="Rectangle 2475" width="7.906" height="8.463" transform="translate(81.338 195.557)" fill="none" stroke="#263238" stroke-width="1"/>
    <rect id="Rectangle_2476" data-name="Rectangle 2476" width="7.906" height="8.463" transform="translate(92.933 195.557)" fill="none" stroke="#263238" stroke-width="1"/>
    <rect id="Rectangle_2477" data-name="Rectangle 2477" width="7.906" height="8.463" transform="translate(104.529 195.557)" fill="none" stroke="#263238" stroke-width="1"/>
    <rect id="Rectangle_2478" data-name="Rectangle 2478" width="7.906" height="8.463" transform="translate(116.124 195.557)" fill="none" stroke="#263238" stroke-width="1"/>
    <rect id="Rectangle_2479" data-name="Rectangle 2479" width="7.906" height="8.463" transform="translate(81.338 208.975)" fill="none" stroke="#263238" stroke-width="1"/>
    <rect id="Rectangle_2480" data-name="Rectangle 2480" width="7.906" height="8.463" transform="translate(92.933 208.975)" fill="none" stroke="#263238" stroke-width="1"/>
    <rect id="Rectangle_2481" data-name="Rectangle 2481" width="7.906" height="8.463" transform="translate(104.529 208.975)" fill="none" stroke="#263238" stroke-width="1"/>
    <rect id="Rectangle_2482" data-name="Rectangle 2482" width="7.906" height="8.463" transform="translate(116.124 208.975)" fill="none" stroke="#263238" stroke-width="1"/>
    <rect id="Rectangle_2483" data-name="Rectangle 2483" width="7.906" height="8.463" transform="translate(81.338 222.392)" fill="none" stroke="#263238" stroke-width="1"/>
    <rect id="Rectangle_2484" data-name="Rectangle 2484" width="7.906" height="8.463" transform="translate(92.933 222.392)" fill="none" stroke="#263238" stroke-width="1"/>
    <rect id="Rectangle_2485" data-name="Rectangle 2485" width="7.906" height="8.463" transform="translate(104.529 222.392)" fill="none" stroke="#263238" stroke-width="1"/>
    <rect id="Rectangle_2486" data-name="Rectangle 2486" width="7.906" height="8.463" transform="translate(116.124 222.392)" fill="none" stroke="#263238" stroke-width="1"/>
    <rect id="Rectangle_2487" data-name="Rectangle 2487" width="7.906" height="8.463" transform="translate(81.338 235.81)" fill="none" stroke="#263238" stroke-width="1"/>
    <rect id="Rectangle_2488" data-name="Rectangle 2488" width="7.906" height="8.463" transform="translate(92.933 235.81)" fill="none" stroke="#263238" stroke-width="1"/>
    <rect id="Rectangle_2489" data-name="Rectangle 2489" width="7.906" height="8.463" transform="translate(104.529 235.81)" fill="none" stroke="#263238" stroke-width="1"/>
    <rect id="Rectangle_2490" data-name="Rectangle 2490" width="7.906" height="8.463" transform="translate(116.124 235.81)" fill="none" stroke="#263238" stroke-width="1"/>
    <rect id="Rectangle_2491" data-name="Rectangle 2491" width="7.906" height="8.463" transform="translate(126.626 141.887)" fill="none" stroke="#263238" stroke-width="1"/>
    <rect id="Rectangle_2492" data-name="Rectangle 2492" width="7.906" height="8.463" transform="translate(138.223 141.887)" fill="none" stroke="#263238" stroke-width="1"/>
    <rect id="Rectangle_2493" data-name="Rectangle 2493" width="7.906" height="8.463" transform="translate(149.818 141.887)" fill="none" stroke="#263238" stroke-width="1"/>
    <rect id="Rectangle_2494" data-name="Rectangle 2494" width="7.906" height="8.463" transform="translate(161.413 141.887)" fill="none" stroke="#263238" stroke-width="1"/>
    <rect id="Rectangle_2495" data-name="Rectangle 2495" width="7.906" height="8.463" transform="translate(126.626 155.305)" fill="none" stroke="#263238" stroke-width="1"/>
    <rect id="Rectangle_2496" data-name="Rectangle 2496" width="7.906" height="8.463" transform="translate(138.223 155.305)" fill="none" stroke="#263238" stroke-width="1"/>
    <rect id="Rectangle_2497" data-name="Rectangle 2497" width="7.906" height="8.463" transform="translate(149.818 155.305)" fill="none" stroke="#263238" stroke-width="1"/>
    <rect id="Rectangle_2498" data-name="Rectangle 2498" width="7.906" height="8.463" transform="translate(161.413 155.305)" fill="none" stroke="#263238" stroke-width="1"/>
    <rect id="Rectangle_2499" data-name="Rectangle 2499" width="7.906" height="8.463" transform="translate(126.626 168.722)" fill="none" stroke="#263238" stroke-width="1"/>
    <rect id="Rectangle_2500" data-name="Rectangle 2500" width="7.906" height="8.463" transform="translate(138.223 168.722)" fill="none" stroke="#263238" stroke-width="1"/>
    <rect id="Rectangle_2501" data-name="Rectangle 2501" width="7.906" height="8.463" transform="translate(149.818 168.722)" fill="none" stroke="#263238" stroke-width="1"/>
    <rect id="Rectangle_2502" data-name="Rectangle 2502" width="7.906" height="8.463" transform="translate(161.413 168.722)" fill="none" stroke="#263238" stroke-width="1"/>
    <rect id="Rectangle_2503" data-name="Rectangle 2503" width="7.906" height="8.463" transform="translate(126.626 182.14)" fill="none" stroke="#263238" stroke-width="1"/>
    <rect id="Rectangle_2504" data-name="Rectangle 2504" width="7.906" height="8.463" transform="translate(138.223 182.14)" fill="none" stroke="#263238" stroke-width="1"/>
    <rect id="Rectangle_2505" data-name="Rectangle 2505" width="7.906" height="8.463" transform="translate(149.818 182.14)" fill="none" stroke="#263238" stroke-width="1"/>
    <rect id="Rectangle_2506" data-name="Rectangle 2506" width="7.906" height="8.463" transform="translate(161.413 182.14)" fill="none" stroke="#263238" stroke-width="1"/>
    <rect id="Rectangle_2507" data-name="Rectangle 2507" width="7.906" height="8.463" transform="translate(126.626 195.557)" fill="none" stroke="#263238" stroke-width="1"/>
    <rect id="Rectangle_2508" data-name="Rectangle 2508" width="7.906" height="8.463" transform="translate(138.223 195.557)" fill="none" stroke="#263238" stroke-width="1"/>
    <rect id="Rectangle_2509" data-name="Rectangle 2509" width="7.906" height="8.463" transform="translate(149.818 195.557)" fill="none" stroke="#263238" stroke-width="1"/>
    <rect id="Rectangle_2510" data-name="Rectangle 2510" width="7.906" height="8.463" transform="translate(161.413 195.557)" fill="none" stroke="#263238" stroke-width="1"/>
    <rect id="Rectangle_2511" data-name="Rectangle 2511" width="7.906" height="8.463" transform="translate(126.626 208.975)" fill="none" stroke="#263238" stroke-width="1"/>
    <rect id="Rectangle_2512" data-name="Rectangle 2512" width="7.906" height="8.463" transform="translate(138.223 208.975)" fill="none" stroke="#263238" stroke-width="1"/>
    <rect id="Rectangle_2513" data-name="Rectangle 2513" width="7.906" height="8.463" transform="translate(149.818 208.975)" fill="none" stroke="#263238" stroke-width="1"/>
    <rect id="Rectangle_2514" data-name="Rectangle 2514" width="7.906" height="8.463" transform="translate(161.413 208.975)" fill="none" stroke="#263238" stroke-width="1"/>
    <rect id="Rectangle_2515" data-name="Rectangle 2515" width="7.906" height="8.463" transform="translate(126.626 222.392)" fill="none" stroke="#263238" stroke-width="1"/>
    <rect id="Rectangle_2516" data-name="Rectangle 2516" width="7.906" height="8.463" transform="translate(138.223 222.392)" fill="none" stroke="#263238" stroke-width="1"/>
    <rect id="Rectangle_2517" data-name="Rectangle 2517" width="7.906" height="8.463" transform="translate(149.818 222.392)" fill="none" stroke="#263238" stroke-width="1"/>
    <rect id="Rectangle_2518" data-name="Rectangle 2518" width="7.906" height="8.463" transform="translate(161.413 222.392)" fill="none" stroke="#263238" stroke-width="1"/>
    <rect id="Rectangle_2519" data-name="Rectangle 2519" width="7.906" height="8.463" transform="translate(126.626 235.81)" fill="none" stroke="#263238" stroke-width="1"/>
    <rect id="Rectangle_2520" data-name="Rectangle 2520" width="7.906" height="8.463" transform="translate(138.223 235.81)" fill="none" stroke="#263238" stroke-width="1"/>
    <rect id="Rectangle_2521" data-name="Rectangle 2521" width="7.906" height="8.463" transform="translate(149.818 235.81)" fill="none" stroke="#263238" stroke-width="1"/>
    <rect id="Rectangle_2522" data-name="Rectangle 2522" width="7.906" height="8.463" transform="translate(161.413 235.81)" fill="none" stroke="#263238" stroke-width="1"/>
    <rect id="Rectangle_2523" data-name="Rectangle 2523" width="7.906" height="8.463" transform="translate(35.411 141.887)" fill="none" stroke="#263238" stroke-width="1"/>
    <rect id="Rectangle_2524" data-name="Rectangle 2524" width="7.906" height="8.463" transform="translate(47.006 141.887)" fill="none" stroke="#263238" stroke-width="1"/>
    <rect id="Rectangle_2525" data-name="Rectangle 2525" width="7.906" height="8.463" transform="translate(58.602 141.887)" fill="none" stroke="#263238" stroke-width="1"/>
    <rect id="Rectangle_2526" data-name="Rectangle 2526" width="7.906" height="8.463" transform="translate(70.197 141.887)" fill="none" stroke="#263238" stroke-width="1"/>
    <rect id="Rectangle_2527" data-name="Rectangle 2527" width="7.906" height="8.463" transform="translate(35.411 155.305)" fill="none" stroke="#263238" stroke-width="1"/>
    <rect id="Rectangle_2528" data-name="Rectangle 2528" width="7.906" height="8.463" transform="translate(47.006 155.305)" fill="none" stroke="#263238" stroke-width="1"/>
    <rect id="Rectangle_2529" data-name="Rectangle 2529" width="7.906" height="8.463" transform="translate(58.602 155.305)" fill="none" stroke="#263238" stroke-width="1"/>
    <rect id="Rectangle_2530" data-name="Rectangle 2530" width="7.906" height="8.463" transform="translate(70.197 155.305)" fill="none" stroke="#263238" stroke-width="1"/>
    <rect id="Rectangle_2531" data-name="Rectangle 2531" width="7.906" height="8.463" transform="translate(35.411 168.722)" fill="none" stroke="#263238" stroke-width="1"/>
    <rect id="Rectangle_2532" data-name="Rectangle 2532" width="7.906" height="8.463" transform="translate(47.006 168.722)" fill="none" stroke="#263238" stroke-width="1"/>
    <rect id="Rectangle_2533" data-name="Rectangle 2533" width="7.906" height="8.463" transform="translate(58.602 168.722)" fill="none" stroke="#263238" stroke-width="1"/>
    <rect id="Rectangle_2534" data-name="Rectangle 2534" width="7.906" height="8.463" transform="translate(70.197 168.722)" fill="none" stroke="#263238" stroke-width="1"/>
    <rect id="Rectangle_2535" data-name="Rectangle 2535" width="7.906" height="8.463" transform="translate(35.411 182.14)" fill="none" stroke="#263238" stroke-width="1"/>
    <rect id="Rectangle_2536" data-name="Rectangle 2536" width="7.906" height="8.463" transform="translate(47.006 182.14)" fill="none" stroke="#263238" stroke-width="1"/>
    <rect id="Rectangle_2537" data-name="Rectangle 2537" width="7.906" height="8.463" transform="translate(58.602 182.14)" fill="none" stroke="#263238" stroke-width="1"/>
    <rect id="Rectangle_2538" data-name="Rectangle 2538" width="7.906" height="8.463" transform="translate(70.197 182.14)" fill="none" stroke="#263238" stroke-width="1"/>
    <rect id="Rectangle_2539" data-name="Rectangle 2539" width="7.906" height="8.463" transform="translate(35.411 195.557)" fill="none" stroke="#263238" stroke-width="1"/>
    <rect id="Rectangle_2540" data-name="Rectangle 2540" width="7.906" height="8.463" transform="translate(47.006 195.557)" fill="none" stroke="#263238" stroke-width="1"/>
    <rect id="Rectangle_2541" data-name="Rectangle 2541" width="7.906" height="8.463" transform="translate(58.602 195.557)" fill="none" stroke="#263238" stroke-width="1"/>
    <rect id="Rectangle_2542" data-name="Rectangle 2542" width="7.906" height="8.463" transform="translate(70.197 195.557)" fill="none" stroke="#263238" stroke-width="1"/>
    <rect id="Rectangle_2543" data-name="Rectangle 2543" width="7.906" height="8.463" transform="translate(35.411 208.975)" fill="none" stroke="#263238" stroke-width="1"/>
    <rect id="Rectangle_2544" data-name="Rectangle 2544" width="7.906" height="8.463" transform="translate(47.006 208.975)" fill="none" stroke="#263238" stroke-width="1"/>
    <rect id="Rectangle_2545" data-name="Rectangle 2545" width="7.906" height="8.463" transform="translate(58.602 208.975)" fill="none" stroke="#263238" stroke-width="1"/>
    <rect id="Rectangle_2546" data-name="Rectangle 2546" width="7.906" height="8.463" transform="translate(70.197 208.975)" fill="none" stroke="#263238" stroke-width="1"/>
    <rect id="Rectangle_2547" data-name="Rectangle 2547" width="7.906" height="8.463" transform="translate(35.411 222.392)" fill="none" stroke="#263238" stroke-width="1"/>
    <rect id="Rectangle_2548" data-name="Rectangle 2548" width="7.906" height="8.463" transform="translate(47.006 222.392)" fill="none" stroke="#263238" stroke-width="1"/>
    <rect id="Rectangle_2549" data-name="Rectangle 2549" width="7.906" height="8.463" transform="translate(58.602 222.392)" fill="none" stroke="#263238" stroke-width="1"/>
    <rect id="Rectangle_2550" data-name="Rectangle 2550" width="7.906" height="8.463" transform="translate(70.197 222.392)" fill="none" stroke="#263238" stroke-width="1"/>
    <rect id="Rectangle_2551" data-name="Rectangle 2551" width="7.906" height="8.463" transform="translate(35.411 235.81)" fill="none" stroke="#263238" stroke-width="1"/>
    <rect id="Rectangle_2552" data-name="Rectangle 2552" width="7.906" height="8.463" transform="translate(47.006 235.81)" fill="none" stroke="#263238" stroke-width="1"/>
    <rect id="Rectangle_2553" data-name="Rectangle 2553" width="7.906" height="8.463" transform="translate(58.602 235.81)" fill="none" stroke="#263238" stroke-width="1"/>
    <rect id="Rectangle_2554" data-name="Rectangle 2554" width="7.906" height="8.463" transform="translate(70.197 235.81)" fill="none" stroke="#263238" stroke-width="1"/>
    <rect id="Rectangle_2555" data-name="Rectangle 2555" width="7.906" height="8.463" transform="translate(294.431 115.586)" fill="none" stroke="#263238" stroke-width="1"/>
    <rect id="Rectangle_2556" data-name="Rectangle 2556" width="7.906" height="8.463" transform="translate(306.028 115.586)" fill="none" stroke="#263238" stroke-width="1"/>
    <rect id="Rectangle_2557" data-name="Rectangle 2557" width="7.906" height="8.463" transform="translate(317.623 115.586)" fill="none" stroke="#263238" stroke-width="1"/>
    <rect id="Rectangle_2558" data-name="Rectangle 2558" width="7.906" height="8.463" transform="translate(329.218 115.586)" fill="none" stroke="#263238" stroke-width="1"/>
    <rect id="Rectangle_2559" data-name="Rectangle 2559" width="7.906" height="8.463" transform="translate(294.431 129.004)" fill="none" stroke="#263238" stroke-width="1"/>
    <rect id="Rectangle_2560" data-name="Rectangle 2560" width="7.906" height="8.463" transform="translate(306.028 129.004)" fill="none" stroke="#263238" stroke-width="1"/>
    <rect id="Rectangle_2561" data-name="Rectangle 2561" width="7.906" height="8.463" transform="translate(317.623 129.004)" fill="none" stroke="#263238" stroke-width="1"/>
    <rect id="Rectangle_2562" data-name="Rectangle 2562" width="7.906" height="8.463" transform="translate(329.218 129.004)" fill="none" stroke="#263238" stroke-width="1"/>
    <rect id="Rectangle_2563" data-name="Rectangle 2563" width="7.906" height="8.463" transform="translate(294.431 142.422)" fill="none" stroke="#263238" stroke-width="1"/>
    <rect id="Rectangle_2564" data-name="Rectangle 2564" width="7.906" height="8.463" transform="translate(306.028 142.422)" fill="none" stroke="#263238" stroke-width="1"/>
    <rect id="Rectangle_2565" data-name="Rectangle 2565" width="7.906" height="8.463" transform="translate(317.623 142.422)" fill="none" stroke="#263238" stroke-width="1"/>
    <rect id="Rectangle_2566" data-name="Rectangle 2566" width="7.906" height="8.463" transform="translate(329.218 142.422)" fill="none" stroke="#263238" stroke-width="1"/>
    <rect id="Rectangle_2567" data-name="Rectangle 2567" width="7.906" height="8.463" transform="translate(294.431 155.839)" fill="none" stroke="#263238" stroke-width="1"/>
    <rect id="Rectangle_2568" data-name="Rectangle 2568" width="7.906" height="8.463" transform="translate(306.028 155.839)" fill="none" stroke="#263238" stroke-width="1"/>
    <rect id="Rectangle_2569" data-name="Rectangle 2569" width="7.906" height="8.463" transform="translate(317.623 155.839)" fill="none" stroke="#263238" stroke-width="1"/>
    <rect id="Rectangle_2570" data-name="Rectangle 2570" width="7.906" height="8.463" transform="translate(329.218 155.839)" fill="none" stroke="#263238" stroke-width="1"/>
    <rect id="Rectangle_2571" data-name="Rectangle 2571" width="7.906" height="8.463" transform="translate(294.431 169.257)" fill="none" stroke="#263238" stroke-width="1"/>
    <rect id="Rectangle_2572" data-name="Rectangle 2572" width="7.906" height="8.463" transform="translate(306.028 169.257)" fill="none" stroke="#263238" stroke-width="1"/>
    <rect id="Rectangle_2573" data-name="Rectangle 2573" width="7.906" height="8.463" transform="translate(317.623 169.257)" fill="none" stroke="#263238" stroke-width="1"/>
    <rect id="Rectangle_2574" data-name="Rectangle 2574" width="7.906" height="8.463" transform="translate(329.218 169.257)" fill="none" stroke="#263238" stroke-width="1"/>
    <rect id="Rectangle_2575" data-name="Rectangle 2575" width="7.906" height="8.463" transform="translate(294.431 182.674)" fill="none" stroke="#263238" stroke-width="1"/>
    <rect id="Rectangle_2576" data-name="Rectangle 2576" width="7.906" height="8.463" transform="translate(306.028 182.674)" fill="none" stroke="#263238" stroke-width="1"/>
    <rect id="Rectangle_2577" data-name="Rectangle 2577" width="7.906" height="8.463" transform="translate(317.623 182.674)" fill="none" stroke="#263238" stroke-width="1"/>
    <rect id="Rectangle_2578" data-name="Rectangle 2578" width="7.906" height="8.463" transform="translate(329.218 182.674)" fill="none" stroke="#263238" stroke-width="1"/>
    <rect id="Rectangle_2579" data-name="Rectangle 2579" width="7.906" height="8.463" transform="translate(294.431 196.092)" fill="none" stroke="#263238" stroke-width="1"/>
    <rect id="Rectangle_2580" data-name="Rectangle 2580" width="7.906" height="8.463" transform="translate(306.028 196.092)" fill="none" stroke="#263238" stroke-width="1"/>
    <rect id="Rectangle_2581" data-name="Rectangle 2581" width="7.906" height="8.463" transform="translate(317.623 196.092)" fill="none" stroke="#263238" stroke-width="1"/>
    <rect id="Rectangle_2582" data-name="Rectangle 2582" width="7.906" height="8.463" transform="translate(329.218 196.092)" fill="none" stroke="#263238" stroke-width="1"/>
    <rect id="Rectangle_2583" data-name="Rectangle 2583" width="7.906" height="8.463" transform="translate(294.431 209.509)" fill="none" stroke="#263238" stroke-width="1"/>
    <rect id="Rectangle_2584" data-name="Rectangle 2584" width="7.906" height="8.463" transform="translate(306.028 209.509)" fill="none" stroke="#263238" stroke-width="1"/>
    <rect id="Rectangle_2585" data-name="Rectangle 2585" width="7.906" height="8.463" transform="translate(317.623 209.509)" fill="none" stroke="#263238" stroke-width="1"/>
    <rect id="Rectangle_2586" data-name="Rectangle 2586" width="7.906" height="8.463" transform="translate(329.218 209.509)" fill="none" stroke="#263238" stroke-width="1"/>
    <line id="Line_82" data-name="Line 82" y2="245.175" transform="translate(205.998 7.637)" fill="none" stroke="#263238" stroke-width="1"/>
    <line id="Line_83" data-name="Line 83" y2="245.175" transform="translate(213.84 7.637)" fill="none" stroke="#263238" stroke-width="1"/>
    <line id="Line_84" data-name="Line 84" y2="245.175" transform="translate(221.681 7.637)" fill="none" stroke="#263238" stroke-width="1"/>
    <line id="Line_85" data-name="Line 85" y2="245.175" transform="translate(229.522 7.637)" fill="none" stroke="#263238" stroke-width="1"/>
    <line id="Line_86" data-name="Line 86" y2="245.175" transform="translate(237.364 7.637)" fill="none" stroke="#263238" stroke-width="1"/>
    <line id="Line_87" data-name="Line 87" y2="245.175" transform="translate(245.205 7.637)" fill="none" stroke="#263238" stroke-width="1"/>
    <line id="Line_88" data-name="Line 88" y2="245.175" transform="translate(253.047 7.637)" fill="none" stroke="#263238" stroke-width="1"/>
    <line id="Line_89" data-name="Line 89" y2="245.175" transform="translate(260.888 7.637)" fill="none" stroke="#263238" stroke-width="1"/>
    <rect id="Rectangle_2587" data-name="Rectangle 2587" width="140.59" height="7.929" transform="translate(40.719 248.542)" fill="none" stroke="#263238" stroke-width="1"/>
    <rect id="Rectangle_2588" data-name="Rectangle 2588" width="126.247" height="7.929" transform="translate(267.597 248.542)" fill="none" stroke="#263238" stroke-width="1"/>
    <g id="Group_3279" data-name="Group 3279">
      <g id="Group_3278" data-name="Group 3278" clip-path="url(#clip-path)">
        <path id="Path_18964" data-name="Path 18964" d="M257.411,249.548s13.781,1.363,20.766,9.907a26.667,26.667,0,0,1,20.634-9.695,26.787,26.787,0,1,0-41.4-.19Z" transform="translate(-1.609 -1.318)" fill="#c6ff00"/>
        <g id="Group_3262" data-name="Group 3262" transform="translate(249.79 204.562)" opacity="0.5">
          <g id="Group_3261" data-name="Group 3261">
            <g id="Group_3260" data-name="Group 3260" clip-path="url(#clip-path-7)">
              <path id="Path_18965" data-name="Path 18965" d="M257.411,249.548s13.781,1.363,20.766,9.907a26.667,26.667,0,0,1,20.634-9.695,26.787,26.787,0,1,0-41.4-.19Z" transform="translate(-251.399 -205.88)" fill="#fff"/>
            </g>
          </g>
        </g>
        <path id="Path_18966" data-name="Path 18966" d="M277.888,207.781l-.465,69.087h2.326Z" transform="translate(-1.776 -1.33)" fill="#263238"/>
        <path id="Path_18967" data-name="Path 18967" d="M278.592,257.108s4.652-8.374,13.026-10.933c0,0-8.839,2.094-13.259,9.3Z" transform="translate(-1.782 -1.576)" fill="#263238"/>
        <path id="Path_18968" data-name="Path 18968" d="M278.592,233.229s4.652-8.374,13.026-10.933c0,0-8.839,2.094-13.259,9.3Z" transform="translate(-1.782 -1.423)" fill="#263238"/>
        <path id="Path_18969" data-name="Path 18969" d="M278.592,245.169s4.652-8.374,13.026-10.933c0,0-8.839,2.094-13.259,9.3Z" transform="translate(-1.782 -1.499)" fill="#263238"/>
        <path id="Path_18970" data-name="Path 18970" d="M277.818,239.316s-4.489-8.374-12.569-10.933c0,0,8.529,2.094,12.794,9.3Z" transform="translate(-1.698 -1.462)" fill="#263238"/>
        <path id="Path_18971" data-name="Path 18971" d="M277.818,251.022s-4.489-8.374-12.569-10.933c0,0,8.529,2.093,12.794,9.3Z" transform="translate(-1.698 -1.537)" fill="#263238"/>
        <path id="Path_18972" data-name="Path 18972" d="M322.733,244.223s16.424,1.625,24.748,11.807c0,0,8.8-11.8,24.592-11.554a31.925,31.925,0,1,0-49.345-.226Z" transform="translate(-2.02 -1.23)" fill="#1b395f"/>
        <g id="Group_3265" data-name="Group 3265" transform="translate(313.548 190.951)" opacity="0.5">
          <g id="Group_3264" data-name="Group 3264" transform="translate(0 0)">
            <g id="Group_3263" data-name="Group 3263" clip-path="url(#clip-path-8)">
              <path id="Path_18973" data-name="Path 18973" d="M322.733,244.223s16.424,1.625,24.748,11.807c0,0,8.8-11.8,24.592-11.554a31.925,31.925,0,1,0-49.345-.226Z" transform="translate(-315.568 -192.181)" fill="#fff"/>
            </g>
          </g>
        </g>
        <path id="Path_18974" data-name="Path 18974" d="M347.136,194.446l-.554,82.336h2.772Z" transform="translate(-2.218 -1.245)" fill="#263238"/>
        <path id="Path_18975" data-name="Path 18975" d="M347.975,253.233s5.544-9.98,15.525-13.029c0,0-10.535,2.495-15.8,11.089Z" transform="translate(-2.225 -1.537)" fill="#263238"/>
        <path id="Path_18976" data-name="Path 18976" d="M347.975,224.774s5.544-9.98,15.525-13.029c0,0-10.535,2.495-15.8,11.089Z" transform="translate(-2.225 -1.355)" fill="#263238"/>
        <path id="Path_18977" data-name="Path 18977" d="M347.975,239s5.544-9.98,15.525-13.03c0,0-10.535,2.5-15.8,11.09Z" transform="translate(-2.225 -1.446)" fill="#263238"/>
        <path id="Path_18978" data-name="Path 18978" d="M347.053,232.028s-5.35-9.98-14.979-13.029c0,0,10.165,2.495,15.247,11.089Z" transform="translate(-2.125 -1.402)" fill="#263238"/>
        <path id="Path_18979" data-name="Path 18979" d="M347.053,245.979s-5.35-9.981-14.979-13.03c0,0,10.165,2.495,15.247,11.09Z" transform="translate(-2.125 -1.491)" fill="#263238"/>
        <path id="Path_18980" data-name="Path 18980" d="M389.282,253.89s11.626,1.151,17.518,8.357a22.5,22.5,0,0,1,17.408-8.178,22.6,22.6,0,1,0-34.929-.159Z" transform="translate(-2.459 -1.389)" fill="#1b395f"/>
        <g id="Group_3268" data-name="Group 3268" transform="translate(381.752 215.663)" opacity="0.5">
          <g id="Group_3267" data-name="Group 3267" transform="translate(0 0)">
            <g id="Group_3266" data-name="Group 3266" clip-path="url(#clip-path-9)">
              <path id="Path_18981" data-name="Path 18981" d="M389.282,253.89s11.626,1.151,17.518,8.357a22.5,22.5,0,0,1,17.408-8.178,22.6,22.6,0,1,0-34.929-.159Z" transform="translate(-384.211 -217.052)" fill="#fff"/>
            </g>
          </g>
        </g>
        <path id="Path_18982" data-name="Path 18982" d="M406.557,218.656l-.393,58.282h1.962Z" transform="translate(-2.6 -1.399)" fill="#263238"/>
        <path id="Path_18983" data-name="Path 18983" d="M407.151,260.268s3.925-7.064,10.989-9.223c0,0-7.457,1.766-11.186,7.849Z" transform="translate(-2.605 -1.607)" fill="#263238"/>
        <path id="Path_18984" data-name="Path 18984" d="M407.151,240.124s3.925-7.064,10.989-9.223c0,0-7.457,1.766-11.186,7.849Z" transform="translate(-2.605 -1.478)" fill="#263238"/>
        <path id="Path_18985" data-name="Path 18985" d="M407.151,250.2s3.925-7.065,10.989-9.224c0,0-7.457,1.767-11.186,7.849Z" transform="translate(-2.605 -1.542)" fill="#263238"/>
        <path id="Path_18986" data-name="Path 18986" d="M406.5,245.259s-3.787-7.064-10.6-9.223c0,0,7.2,1.766,10.793,7.849Z" transform="translate(-2.534 -1.511)" fill="#263238"/>
        <path id="Path_18987" data-name="Path 18987" d="M406.5,255.133s-3.787-7.064-10.6-9.223c0,0,7.2,1.766,10.793,7.849Z" transform="translate(-2.534 -1.574)" fill="#263238"/>
        <path id="Path_18988" data-name="Path 18988" d="M15.878,249.548s13.781,1.363,20.766,9.907a26.667,26.667,0,0,1,20.634-9.695,26.787,26.787,0,1,0-41.4-.19Z" transform="translate(-0.063 -1.318)" fill="#1b395f"/>
        <g id="Group_3271" data-name="Group 3271" transform="translate(9.804 204.671)" opacity="0.5">
          <g id="Group_3270" data-name="Group 3270">
            <g id="Group_3269" data-name="Group 3269" clip-path="url(#clip-path-10)">
              <path id="Path_18989" data-name="Path 18989" d="M15.878,249.548s13.781,1.363,20.766,9.907a26.667,26.667,0,0,1,20.634-9.695,26.787,26.787,0,1,0-41.4-.19Z" transform="translate(-9.867 -205.88)" fill="#fff"/>
            </g>
          </g>
        </g>
        <path id="Path_18990" data-name="Path 18990" d="M36.356,207.781l-.465,69.087h2.326Z" transform="translate(-0.23 -1.33)" fill="#263238"/>
        <path id="Path_18991" data-name="Path 18991" d="M37.06,257.108s4.652-8.374,13.026-10.933c0,0-8.839,2.094-13.259,9.3Z" transform="translate(-0.236 -1.576)" fill="#263238"/>
        <path id="Path_18992" data-name="Path 18992" d="M37.06,233.229s4.652-8.374,13.026-10.933c0,0-8.839,2.094-13.259,9.3Z" transform="translate(-0.236 -1.423)" fill="#263238"/>
        <path id="Path_18993" data-name="Path 18993" d="M37.06,245.169s4.652-8.374,13.026-10.933c0,0-8.839,2.094-13.259,9.3Z" transform="translate(-0.236 -1.499)" fill="#263238"/>
        <path id="Path_18994" data-name="Path 18994" d="M36.286,239.316s-4.489-8.374-12.569-10.933c0,0,8.529,2.094,12.794,9.3Z" transform="translate(-0.152 -1.462)" fill="#263238"/>
        <path id="Path_18995" data-name="Path 18995" d="M36.286,251.022s-4.489-8.374-12.569-10.933c0,0,8.529,2.093,12.794,9.3Z" transform="translate(-0.152 -1.537)" fill="#263238"/>
        <path id="Path_18996" data-name="Path 18996" d="M81.2,244.223s16.424,1.625,24.749,11.807c0,0,8.8-11.8,24.592-11.554a31.925,31.925,0,1,0-49.345-.226Z" transform="translate(-0.474 -1.23)" fill="#c6ff00"/>
        <g id="Group_3274" data-name="Group 3274" transform="translate(73.562 190.95)" opacity="0.5">
          <g id="Group_3273" data-name="Group 3273">
            <g id="Group_3272" data-name="Group 3272" clip-path="url(#clip-path-8)">
              <path id="Path_18997" data-name="Path 18997" d="M81.2,244.223s16.424,1.625,24.749,11.807c0,0,8.8-11.8,24.592-11.554a31.925,31.925,0,1,0-49.345-.226Z" transform="translate(-74.036 -192.181)" fill="#fff"/>
            </g>
          </g>
        </g>
        <path id="Path_18998" data-name="Path 18998" d="M105.6,194.446l-.554,82.336h2.772Z" transform="translate(-0.672 -1.245)" fill="#263238"/>
        <path id="Path_18999" data-name="Path 18999" d="M106.443,253.233s5.544-9.98,15.525-13.029c0,0-10.535,2.495-15.8,11.089Z" transform="translate(-0.68 -1.537)" fill="#263238"/>
        <path id="Path_19000" data-name="Path 19000" d="M106.443,224.774s5.544-9.98,15.525-13.029c0,0-10.535,2.495-15.8,11.089Z" transform="translate(-0.68 -1.355)" fill="#263238"/>
        <path id="Path_19001" data-name="Path 19001" d="M106.443,239s5.544-9.98,15.525-13.03c0,0-10.535,2.5-15.8,11.09Z" transform="translate(-0.68 -1.446)" fill="#263238"/>
        <path id="Path_19002" data-name="Path 19002" d="M105.522,232.028s-5.351-9.98-14.98-13.029c0,0,10.165,2.495,15.247,11.089Z" transform="translate(-0.58 -1.402)" fill="#263238"/>
        <path id="Path_19003" data-name="Path 19003" d="M105.522,245.979s-5.351-9.981-14.98-13.03c0,0,10.165,2.495,15.247,11.09Z" transform="translate(-0.58 -1.491)" fill="#263238"/>
        <path id="Path_19004" data-name="Path 19004" d="M147.75,253.89s11.626,1.151,17.518,8.357a22.5,22.5,0,0,1,17.407-8.178,22.6,22.6,0,1,0-34.928-.159Z" transform="translate(-0.913 -1.389)" fill="#1b395f"/>
        <g id="Group_3277" data-name="Group 3277" transform="translate(141.766 215.663)" opacity="0.5">
          <g id="Group_3276" data-name="Group 3276" transform="translate(0 0)">
            <g id="Group_3275" data-name="Group 3275" clip-path="url(#clip-path-9)">
              <path id="Path_19005" data-name="Path 19005" d="M147.75,253.89s11.626,1.151,17.518,8.357a22.5,22.5,0,0,1,17.407-8.178,22.6,22.6,0,1,0-34.928-.159Z" transform="translate(-142.679 -217.052)" fill="#fff"/>
            </g>
          </g>
        </g>
        <path id="Path_19006" data-name="Path 19006" d="M165.025,218.656l-.392,58.282h1.962Z" transform="translate(-1.054 -1.399)" fill="#263238"/>
        <path id="Path_19007" data-name="Path 19007" d="M165.619,260.268s3.925-7.064,10.989-9.223c0,0-7.457,1.766-11.185,7.849Z" transform="translate(-1.059 -1.607)" fill="#263238"/>
        <path id="Path_19008" data-name="Path 19008" d="M165.619,240.124s3.925-7.064,10.989-9.223c0,0-7.457,1.766-11.185,7.849Z" transform="translate(-1.059 -1.478)" fill="#263238"/>
        <path id="Path_19009" data-name="Path 19009" d="M165.619,250.2s3.925-7.065,10.989-9.224c0,0-7.457,1.767-11.185,7.849Z" transform="translate(-1.059 -1.542)" fill="#263238"/>
        <path id="Path_19010" data-name="Path 19010" d="M164.966,245.259s-3.787-7.064-10.6-9.223c0,0,7.2,1.766,10.793,7.849Z" transform="translate(-0.988 -1.511)" fill="#263238"/>
        <path id="Path_19011" data-name="Path 19011" d="M164.966,255.133s-3.787-7.064-10.6-9.223c0,0,7.2,1.766,10.793,7.849Z" transform="translate(-0.988 -1.574)" fill="#263238"/>
      </g>
    </g>
    <g id="Group_3281" data-name="Group 3281">
      <g id="Group_3280" data-name="Group 3280" clip-path="url(#clip-path)">
        <path id="Path_19012" data-name="Path 19012" d="M324.185,250.36A26.586,26.586,0,1,0,297.6,276.947a26.587,26.587,0,0,0,26.587-26.587" transform="translate(-1.735 -1.432)" fill="#263238"/>
        <path id="Path_19013" data-name="Path 19013" d="M324.185,250.36A26.586,26.586,0,1,0,297.6,276.947,26.587,26.587,0,0,0,324.185,250.36Z" transform="translate(-1.735 -1.432)" fill="none" stroke="#263238" stroke-width="1"/>
        <path id="Path_19014" data-name="Path 19014" d="M136.766,250.36a26.586,26.586,0,1,0-26.587,26.587,26.587,26.587,0,0,0,26.587-26.587" transform="translate(-0.535 -1.432)" fill="#263238"/>
        <path id="Path_19015" data-name="Path 19015" d="M136.766,250.36a26.586,26.586,0,1,0-26.587,26.587A26.587,26.587,0,0,0,136.766,250.36Z" transform="translate(-0.535 -1.432)" fill="none" stroke="#263238" stroke-width="1"/>
        <path id="Path_19016" data-name="Path 19016" d="M278.236,199.638s-7.061-4.413-39.274-15-52.953-14.121-84.724-13.239-74.576,12.8-82.519,15.887-11.473,3.971-9.707,6.177,11.473,10.15,10.15,13.68S49.213,230.086,47.89,233.175s4.413,13.68,5.295,16.327,5.737,3.53,9.708,3.971,286.388,0,286.388,0,3.971-4.854,3.089-11.032-1.828-14.326-5.807-19.547c-3.22-4.226-6.549-8.694-14.934-9.576-5.266-.554-52.071-13.239-53.394-13.68" transform="translate(-0.305 -1.096)" fill="#c6ff00"/>
      </g>
    </g>
    <g id="Group_3283" data-name="Group 3283" transform="translate(47.388 170.171)">
      <g id="Group_3282" data-name="Group 3282" clip-path="url(#clip-path-14)">
        <path id="Path_19017" data-name="Path 19017" d="M278.236,199.638s-7.061-4.413-39.274-15-52.953-14.121-84.724-13.239-74.576,12.8-82.519,15.887-11.473,3.971-9.707,6.177,11.473,10.15,10.15,13.68S49.213,230.086,47.89,233.175s4.413,13.68,5.295,16.327,5.737,3.53,9.708,3.971,286.388,0,286.388,0,3.971-4.854,3.089-11.032-1.828-14.326-5.807-19.547c-3.22-4.226-6.549-8.694-14.934-9.576-5.266-.554-52.071-13.239-53.394-13.68" transform="translate(-47.693 -171.267)" fill="#1b395f"/>
      </g>
    </g>
    <g id="Group_3288" data-name="Group 3288" transform="translate(47.388 170.171)">
      <g id="Group_3287" data-name="Group 3287" clip-path="url(#clip-path-15)">
        <g id="Group_3286" data-name="Group 3286" transform="translate(0)" opacity="0.15">
          <g id="Group_3285" data-name="Group 3285">
            <g id="Group_3284" data-name="Group 3284" clip-path="url(#clip-path-16)">
              <path id="Path_19019" data-name="Path 19019" d="M278.236,199.638s-7.061-4.413-39.274-15-52.953-14.121-84.724-13.239-74.576,12.8-82.519,15.887-11.473,3.971-9.707,6.177,11.473,10.15,10.15,13.68S49.213,230.086,47.89,233.175s4.413,13.68,5.295,16.327,5.737,3.53,9.708,3.971,286.388,0,286.388,0,3.971-4.854,3.089-11.032-1.828-14.326-5.807-19.547c-3.22-4.226-6.549-8.694-14.934-9.576-5.266-.554-52.071-13.239-53.394-13.68" transform="translate(-47.693 -171.267)"/>
            </g>
          </g>
        </g>
      </g>
    </g>
    <g id="Group_3290" data-name="Group 3290">
      <g id="Group_3289" data-name="Group 3289" clip-path="url(#clip-path)">
        <path id="Path_19021" data-name="Path 19021" d="M278.236,199.638s-7.061-4.413-39.274-15-52.953-14.121-84.724-13.239-74.576,12.8-82.519,15.887-11.473,3.971-9.707,6.177,11.473,10.15,10.15,13.68S49.213,230.086,47.89,233.175s4.413,13.68,5.295,16.327,5.737,3.53,9.708,3.971,286.388,0,286.388,0,3.971-4.854,3.089-11.032-1.828-14.326-5.807-19.547c-3.22-4.226-6.549-8.694-14.934-9.576C326.364,212.764,279.559,200.079,278.236,199.638Z" transform="translate(-0.305 -1.096)" fill="none" stroke="#263238" stroke-width="1"/>
        <rect id="Rectangle_2598" data-name="Rectangle 2598" width="16.768" height="4.413" transform="translate(332.208 229.431)" fill="#263238"/>
        <rect id="Rectangle_2599" data-name="Rectangle 2599" width="16.768" height="4.413" transform="translate(332.208 229.431)" fill="none" stroke="#263238" stroke-width="1"/>
        <path id="Path_19022" data-name="Path 19022" d="M326.283,223.227h2.672a8.563,8.563,0,0,1,7.944,5.363l2.693,6.682h-8.747Z" transform="translate(-2.088 -1.429)" fill="#fff"/>
        <path id="Path_19023" data-name="Path 19023" d="M326.283,223.227h2.672a8.563,8.563,0,0,1,7.944,5.363l2.693,6.682h-8.747Z" transform="translate(-2.088 -1.429)" fill="none" stroke="#263238" stroke-width="1"/>
        <path id="Path_19024" data-name="Path 19024" d="M351,227.772c-.1.274-.191.554-.269.848l-1.8,6.682h4.193a40.1,40.1,0,0,0-2.123-7.53" transform="translate(-2.233 -1.458)" fill="#fff"/>
        <path id="Path_19025" data-name="Path 19025" d="M351,227.772c-.1.274-.191.554-.269.848l-1.8,6.682h4.193A40.1,40.1,0,0,0,351,227.772Z" transform="translate(-2.233 -1.458)" fill="none" stroke="#263238" stroke-width="1"/>
        <path id="Path_19026" data-name="Path 19026" d="M279.158,199.685s-7.061-4.413-39.274-15c-7.355-2.418-14.108-4.464-20.536-6.178H196.64l-4.854,1.324,65.308,19.857Z" transform="translate(-1.228 -1.143)" fill="#263238"/>
        <path id="Path_19027" data-name="Path 19027" d="M279.158,199.685s-7.061-4.413-39.274-15c-7.355-2.418-14.108-4.464-20.536-6.178H196.64l-4.854,1.324,65.308,19.857Z" transform="translate(-1.228 -1.143)" fill="none" stroke="#263238" stroke-width="1"/>
        <path id="Path_19028" data-name="Path 19028" d="M40.345,192.7v29.836S58.5,207.617,56.257,203.39,40.345,192.7,40.345,192.7" transform="translate(-0.258 -1.233)" fill="#8f8f8f"/>
        <path id="Path_19029" data-name="Path 19029" d="M40.345,192.7v29.836S58.5,207.617,56.257,203.39,40.345,192.7,40.345,192.7Z" transform="translate(-0.258 -1.233)" fill="none" stroke="#263238" stroke-width="1"/>
        <path id="Path_19030" data-name="Path 19030" d="M256.03,199.638s-7.061-4.413-39.274-15S163.8,170.514,132.032,171.4s-74.576,12.8-82.519,15.887-11.473,3.971-9.707,6.177,11.473,10.15,10.15,13.68-22.947,22.946-24.271,26.035,4.413,13.68,5.295,16.327,5.737,3.53,9.708,3.971,286.388,0,286.388,0,3.971-4.854,3.089-11.032-1.828-14.326-5.807-19.547c-3.22-4.226-6.549-8.694-14.934-9.576-5.266-.554-52.071-13.239-53.394-13.68" transform="translate(-0.163 -1.096)" fill="#1b395f"/>
      </g>
    </g>
    <g id="Group_3295" data-name="Group 3295" transform="translate(25.323 170.171)">
      <g id="Group_3294" data-name="Group 3294" clip-path="url(#clip-path-18)">
        <g id="Group_3293" data-name="Group 3293" transform="translate(0 39.501)" opacity="0.15">
          <g id="Group_3292" data-name="Group 3292">
            <g id="Group_3291" data-name="Group 3291" clip-path="url(#clip-path-19)">
              <path id="Path_19031" data-name="Path 19031" d="M324.358,223.149c-3.22-4.227-6.549-8.7-14.934-9.577-1.392-.146-5.689-1.142-11.281-2.534-26.666-.271-41.53,10.514-81.365,14.167-51.892,4.756-87.784-8.217-131.027-13.406-18.032-2.164-32.591.489-43.454,4.312-6.808,6.869-15.775,15.363-16.613,17.318-1.323,3.088,4.413,13.679,5.3,16.327s5.736,3.53,9.707,3.971,286.388,0,286.388,0,3.971-4.854,3.089-11.032-1.828-14.326-5.807-19.547" transform="translate(-25.487 -211.022)"/>
            </g>
          </g>
        </g>
      </g>
    </g>
    <g id="Group_3297" data-name="Group 3297">
      <g id="Group_3296" data-name="Group 3296" clip-path="url(#clip-path)">
        <path id="Path_19033" data-name="Path 19033" d="M256.03,199.638s-7.061-4.413-39.274-15S163.8,170.514,132.032,171.4s-74.576,12.8-82.519,15.887-11.473,3.971-9.707,6.177,11.473,10.15,10.15,13.68-22.947,22.946-24.271,26.035,4.413,13.68,5.295,16.327,5.737,3.53,9.708,3.971,286.388,0,286.388,0,3.971-4.854,3.089-11.032-1.828-14.326-5.807-19.547c-3.22-4.226-6.549-8.694-14.934-9.576C304.158,212.764,257.353,200.079,256.03,199.638Z" transform="translate(-0.163 -1.096)" fill="none" stroke="#263238" stroke-width="1"/>
        <path id="Path_19034" data-name="Path 19034" d="M89.56,183.4l17.653,18.648H237V197.82s-26.6-10.443-54.7-15.913-35.057-4.973-47.738-4.725-45,6.216-45,6.216" transform="translate(-0.573 -1.133)" fill="#8f8f8f"/>
      </g>
    </g>
    <g id="Group_3299" data-name="Group 3299" transform="translate(88.987 175.914)">
      <g id="Group_3298" data-name="Group 3298" clip-path="url(#clip-path-21)">
        <path id="Path_19035" data-name="Path 19035" d="M152.928,193.987a82.133,82.133,0,0,0-49.479,4.086l3.853,4.07H237.089v-4.227s-4.308-1.69-11.281-4.066c-14.6,5.584-43.547,6.607-72.88.137" transform="translate(-89.649 -177.142)" fill="#263238"/>
        <path id="Path_19036" data-name="Path 19036" d="M152.928,193.987a82.133,82.133,0,0,0-49.479,4.086l3.853,4.07H237.089v-4.227s-4.308-1.69-11.281-4.066C211.208,199.434,182.26,200.457,152.928,193.987Z" transform="translate(-89.649 -177.142)" fill="none" stroke="#263238" stroke-width="1"/>
      </g>
    </g>
    <g id="Group_3301" data-name="Group 3301">
      <g id="Group_3300" data-name="Group 3300" clip-path="url(#clip-path)">
        <path id="Path_19038" data-name="Path 19038" d="M89.56,183.4l17.653,18.648H237V197.82s-26.6-10.443-54.7-15.913-35.057-4.973-47.738-4.725S89.56,183.4,89.56,183.4Z" transform="translate(-0.573 -1.133)" fill="none" stroke="#263238" stroke-width="4"/>
        <line id="Line_90" data-name="Line 90" y2="40.527" transform="translate(147.665 203.4)" fill="none" stroke="#263238" stroke-width="1"/>
        <path id="Path_19039" data-name="Path 19039" d="M106.566,250.36A26.586,26.586,0,1,0,79.98,276.947a26.587,26.587,0,0,0,26.587-26.587" transform="translate(-0.342 -1.432)" fill="#263238"/>
        <path id="Path_19040" data-name="Path 19040" d="M106.566,250.36A26.586,26.586,0,1,0,79.98,276.947,26.587,26.587,0,0,0,106.566,250.36Z" transform="translate(-0.342 -1.432)" fill="none" stroke="#263238" stroke-width="1"/>
        <path id="Path_19041" data-name="Path 19041" d="M80.027,231.221a19.186,19.186,0,1,0,19.187,19.186,19.187,19.187,0,0,0-19.187-19.186m12.891,15.344-11.176,2.1,3.172-10.785a13.483,13.483,0,0,1,8,8.689m-11.928,4.8H79.066v-1.925H80.99Zm-4.8-13.852,2.1,11.176L67.5,245.521a13.477,13.477,0,0,1,8.689-8m-9.049,16.731,11.176-2.1-3.172,10.785a13.478,13.478,0,0,1-8-8.689M83.87,263.3l-2.1-11.176,10.785,3.172a13.481,13.481,0,0,1-8.689,8" transform="translate(-0.389 -1.48)" fill="#fff"/>
        <path id="Path_19042" data-name="Path 19042" d="M80.027,231.221a19.186,19.186,0,1,0,19.187,19.186A19.187,19.187,0,0,0,80.027,231.221Zm12.891,15.344-11.176,2.1,3.172-10.785A13.483,13.483,0,0,1,92.918,246.565Zm-11.928,4.8H79.066v-1.925H80.99Zm-4.8-13.852,2.1,11.176L67.5,245.521A13.477,13.477,0,0,1,76.186,237.517Zm-9.049,16.731,11.176-2.1-3.172,10.785A13.478,13.478,0,0,1,67.137,254.249ZM83.87,263.3l-2.1-11.176,10.785,3.172A13.481,13.481,0,0,1,83.87,263.3Z" transform="translate(-0.389 -1.48)" fill="none" stroke="#263238" stroke-width="1"/>
        <path id="Path_19043" data-name="Path 19043" d="M86.061,250.493a5.948,5.948,0,1,0-5.949,5.949,5.949,5.949,0,0,0,5.949-5.949" transform="translate(-0.475 -1.565)" fill="#fff"/>
        <path id="Path_19044" data-name="Path 19044" d="M86.061,250.493a5.948,5.948,0,1,0-5.949,5.949A5.949,5.949,0,0,0,86.061,250.493Z" transform="translate(-0.475 -1.565)" fill="none" stroke="#263238" stroke-width="1"/>
        <path id="Path_19045" data-name="Path 19045" d="M294.873,250.36a26.586,26.586,0,1,0-26.587,26.587,26.587,26.587,0,0,0,26.587-26.587" transform="translate(-1.547 -1.432)" fill="#263238"/>
        <path id="Path_19046" data-name="Path 19046" d="M294.873,250.36a26.586,26.586,0,1,0-26.587,26.587A26.587,26.587,0,0,0,294.873,250.36Z" transform="translate(-1.547 -1.432)" fill="none" stroke="#263238" stroke-width="1"/>
        <path id="Path_19047" data-name="Path 19047" d="M268.333,231.221a19.186,19.186,0,1,0,19.187,19.186,19.187,19.187,0,0,0-19.187-19.186m12.891,15.344-11.177,2.1,3.173-10.785a13.483,13.483,0,0,1,8,8.689m-11.928,4.8h-1.925v-1.925H269.3Zm-4.8-13.852,2.1,11.176L255.8,245.521a13.477,13.477,0,0,1,8.689-8m-9.049,16.731,11.176-2.1-3.172,10.785a13.478,13.478,0,0,1-8-8.689m16.732,9.049-2.1-11.176,10.785,3.172a13.481,13.481,0,0,1-8.689,8" transform="translate(-1.595 -1.48)" fill="#fff"/>
        <path id="Path_19048" data-name="Path 19048" d="M268.333,231.221a19.186,19.186,0,1,0,19.187,19.186A19.187,19.187,0,0,0,268.333,231.221Zm12.891,15.344-11.177,2.1,3.173-10.785A13.483,13.483,0,0,1,281.224,246.565Zm-11.928,4.8h-1.925v-1.925H269.3Zm-4.8-13.852,2.1,11.176L255.8,245.521A13.477,13.477,0,0,1,264.492,237.517Zm-9.049,16.731,11.176-2.1-3.172,10.785A13.478,13.478,0,0,1,255.443,254.249Zm16.732,9.049-2.1-11.176,10.785,3.172A13.481,13.481,0,0,1,272.176,263.3Z" transform="translate(-1.595 -1.48)" fill="none" stroke="#263238" stroke-width="1"/>
        <path id="Path_19049" data-name="Path 19049" d="M274.367,250.493a5.948,5.948,0,1,0-5.949,5.949,5.949,5.949,0,0,0,5.949-5.949" transform="translate(-1.68 -1.565)" fill="#fff"/>
        <path id="Path_19050" data-name="Path 19050" d="M274.367,250.493a5.948,5.948,0,1,0-5.949,5.949A5.949,5.949,0,0,0,274.367,250.493Z" transform="translate(-1.68 -1.565)" fill="none" stroke="#263238" stroke-width="1"/>
        <path id="Path_19051" data-name="Path 19051" d="M326.149,223.224s-19.788-1.013-20.67,0,6.619,8.956,9.266,10.722c2.1,1.4,11.973,1.134,15.965.964-.845-4.243-2.139-8.507-4.562-11.686" transform="translate(-1.955 -1.426)" fill="#fff"/>
        <path id="Path_19052" data-name="Path 19052" d="M326.149,223.224s-19.788-1.013-20.67,0,6.619,8.956,9.266,10.722c2.1,1.4,11.973,1.134,15.965.964C329.866,230.667,328.572,226.4,326.149,223.224Z" transform="translate(-1.955 -1.426)" fill="none" stroke="#263238" stroke-width="1"/>
        <path id="Path_19053" data-name="Path 19053" d="M151.842,177.317c-1.3-.087-2.528-.15-3.717-.192l-3.33,24.841h8.825Z" transform="translate(-0.927 -1.134)" fill="#263238"/>
        <path id="Path_19054" data-name="Path 19054" d="M151.842,177.317c-1.3-.087-2.528-.15-3.717-.192l-3.33,24.841h8.825Z" transform="translate(-0.927 -1.134)" fill="none" stroke="#263238" stroke-width="1"/>
      </g>
    </g>
    <g id="Group_3303" data-name="Group 3303">
      <g id="Group_3302" data-name="Group 3302" clip-path="url(#clip-path)">
        <path id="Path_19055" data-name="Path 19055" d="M184.894,269.4a34,34,0,0,1-4.957,2.63c-2.124.809-3.54,1.316-3.136,2.63s2.731,2.427,5.665,3.034,8.193-.707,9.61-1.112,1.618-2.731.606-4.047-6.069-3.844-7.789-3.136" transform="translate(-1.131 -1.724)" fill="#263238"/>
        <path id="Path_19056" data-name="Path 19056" d="M184.894,269.4a34,34,0,0,1-4.957,2.63c-2.124.809-3.54,1.316-3.136,2.63s2.731,2.427,5.665,3.034,8.193-.707,9.61-1.112,1.618-2.731.606-4.047S186.614,268.694,184.894,269.4Z" transform="translate(-1.131 -1.724)" fill="none" stroke="#263238" stroke-linecap="round" stroke-linejoin="round" stroke-width="1"/>
        <path id="Path_19057" data-name="Path 19057" d="M185.807,277.015c-2.427,0-6.474-.91-6.474-1.821s1.011-1.619-.2-1.922c-1.069-.267-1.981,1.347-2.184,1.737.655,1.174,2.831,2.157,5.521,2.715,2.934.607,8.194-.708,9.61-1.113a1.659,1.659,0,0,0,1.082-1.113,24.707,24.707,0,0,1-7.354,1.517" transform="translate(-1.133 -1.749)" fill="#fff"/>
        <path id="Path_19058" data-name="Path 19058" d="M185.807,277.015c-2.427,0-6.474-.91-6.474-1.821s1.011-1.619-.2-1.922c-1.069-.267-1.981,1.347-2.184,1.737.655,1.174,2.831,2.157,5.521,2.715,2.934.607,8.194-.708,9.61-1.113a1.659,1.659,0,0,0,1.082-1.113A24.707,24.707,0,0,1,185.807,277.015Z" transform="translate(-1.133 -1.749)" fill="none" stroke="#263238" stroke-linecap="round" stroke-linejoin="round" stroke-width="1"/>
        <path id="Path_19059" data-name="Path 19059" d="M197.466,204.041l.607,2.023a3.245,3.245,0,0,0-1.214,2.529,4.89,4.89,0,0,0,1.72,2.833" transform="translate(-1.26 -1.306)" fill="none" stroke="#263238" stroke-linecap="round" stroke-linejoin="round" stroke-width="1"/>
        <path id="Path_19060" data-name="Path 19060" d="M191.211,200.071a39.528,39.528,0,0,0-1.518,5.057v2.731c0,.506-2.022,11.229-2.426,17.8s-.709,14.263-1.214,15.983.1,2.63.2,5.057.2,14.669.2,14.669-.507,3.237-.608,4.046-1.113,1.113-1.416,1.619a16.91,16.91,0,0,0-.809,2.529,9.131,9.131,0,0,1,4.147,2.428c1.416,1.72,5.26,3.844,5.767,3.743s.808-1.517,1.618-3.44.708-2.933,1.113-3.743,1.011-2.124,1.923-8.193,1.72-15.073,2.226-16.287,3.135-5.766,3.135-5.766a102.533,102.533,0,0,0,5.867-13.656,82.892,82.892,0,0,0,3.339-13.353,86.672,86.672,0,0,0,.91-9.407V200.88s-3.743,1.417-10.42.708-12.036-1.517-12.036-1.517" transform="translate(-1.175 -1.281)" fill="#fff"/>
        <path id="Path_19061" data-name="Path 19061" d="M191.211,200.071a39.528,39.528,0,0,0-1.518,5.057v2.731c0,.506-2.022,11.229-2.426,17.8s-.709,14.263-1.214,15.983.1,2.63.2,5.057.2,14.669.2,14.669-.507,3.237-.608,4.046-1.113,1.113-1.416,1.619a16.91,16.91,0,0,0-.809,2.529,9.131,9.131,0,0,1,4.147,2.428c1.416,1.72,5.26,3.844,5.767,3.743s.808-1.517,1.618-3.44.708-2.933,1.113-3.743,1.011-2.124,1.923-8.193,1.72-15.073,2.226-16.287,3.135-5.766,3.135-5.766a102.533,102.533,0,0,0,5.867-13.656,82.892,82.892,0,0,0,3.339-13.353,86.672,86.672,0,0,0,.91-9.407V200.88s-3.743,1.417-10.42.708S191.211,200.071,191.211,200.071Z" transform="translate(-1.175 -1.281)" fill="none" stroke="#263238" stroke-linecap="round" stroke-linejoin="round" stroke-width="1"/>
        <path id="Path_19062" data-name="Path 19062" d="M205.189,205.976s-4.552,2.427-5.26,3.642-1.619,6.373-3.642,12.746-3.844,11.229-5.564,16.59a40.232,40.232,0,0,0-2.124,9.509c-.607,3.946-2.023,14.466-2.023,14.466" transform="translate(-1.194 -1.318)" fill="none" stroke="#263238" stroke-linecap="round" stroke-linejoin="round" stroke-width="1"/>
        <path id="Path_19063" data-name="Path 19063" d="M193.194,274.161s2.226-.809,2.226-5.361-.81-7.789,0-12.139,2.832-11.431,4.046-13.556,2.63-4.856,2.63-4.856" transform="translate(-1.237 -1.525)" fill="none" stroke="#263238" stroke-linecap="round" stroke-linejoin="round" stroke-width="1"/>
        <path id="Path_19064" data-name="Path 19064" d="M201.03,236.643s3.54,2.427,4.249,1.517a36.363,36.363,0,0,0,2.731-6.069c.91-2.327,1.315-3.44,1.315-3.44s1.012-.1,1.113-1.012.3-2.63.3-2.63a17.4,17.4,0,0,1-3.237-.4c-1.923-.405-2.63-.3-3.034.606a15.249,15.249,0,0,0-.81,1.923c-.607,1.619-2.933,7.081-3.034,7.89s-.2,1.011.4,1.619" transform="translate(-1.284 -1.436)" fill="#fff"/>
        <path id="Path_19065" data-name="Path 19065" d="M201.03,236.643s3.54,2.427,4.249,1.517a36.363,36.363,0,0,0,2.731-6.069c.91-2.327,1.315-3.44,1.315-3.44s1.012-.1,1.113-1.012.3-2.63.3-2.63a17.4,17.4,0,0,1-3.237-.4c-1.923-.405-2.63-.3-3.034.606a15.249,15.249,0,0,0-.81,1.923c-.607,1.619-2.933,7.081-3.034,7.89S200.423,236.036,201.03,236.643Z" transform="translate(-1.284 -1.436)" fill="none" stroke="#263238" stroke-linecap="round" stroke-linejoin="round" stroke-width="1"/>
        <path id="Path_19066" data-name="Path 19066" d="M209.351,228.665a33.59,33.59,0,0,1-4.147-.506c-1.113-.3-.506-1.72-.506-1.72" transform="translate(-1.309 -1.449)" fill="#c6ff00"/>
        <path id="Path_19067" data-name="Path 19067" d="M209.351,228.665a33.59,33.59,0,0,1-4.147-.506c-1.113-.3-.506-1.72-.506-1.72" transform="translate(-1.309 -1.449)" fill="none" stroke="#263238" stroke-linecap="round" stroke-linejoin="round" stroke-width="1"/>
        <path id="Path_19068" data-name="Path 19068" d="M207.956,224.53s2.63-8.5,3.034-10.217l.405-1.72" transform="translate(-1.331 -1.361)" fill="none" stroke="#263238" stroke-linecap="round" stroke-linejoin="round" stroke-width="1"/>
        <path id="Path_19069" data-name="Path 19069" d="M208.769,203.634s-.708,3.54,0,5.463a10.9,10.9,0,0,0,3.54,4.147" transform="translate(-1.334 -1.303)" fill="none" stroke="#263238" stroke-linecap="round" stroke-linejoin="round" stroke-width="1"/>
        <path id="Path_19070" data-name="Path 19070" d="M194.008,205.161s5.26,1.517,8.4.4" transform="translate(-1.242 -1.313)" fill="none" stroke="#263238" stroke-linecap="round" stroke-linejoin="round" stroke-width="1"/>
        <path id="Path_19071" data-name="Path 19071" d="M203.537,165.15s-6.879,1.72-8.9,2.124-3.136.4-3.44,1.316a80.21,80.21,0,0,1-7.687,11.733c-2.327,2.53-2.53,4.957-1.821,6.273s1.517,1.922,4.553,1.113a10.265,10.265,0,0,0,4.956-3.339s.708,7.587-.3,10.622-1.417,5.463-.708,5.969a21.15,21.15,0,0,0,10.014,2.63c5.564.2,11.937-.3,12.949-1.316a2.715,2.715,0,0,0,1.011-2.326c0-.708-.4-5.463.81-9.206s4.653-13.353,4.754-16.995-1.315-4.147-4.047-5.26-7.081-3.035-8.093-3.237a29.74,29.74,0,0,0-4.046-.1" transform="translate(-1.161 -1.057)" fill="#263238"/>
        <path id="Path_19072" data-name="Path 19072" d="M203.537,165.15s-6.879,1.72-8.9,2.124-3.136.4-3.44,1.316a80.21,80.21,0,0,1-7.687,11.733c-2.327,2.53-2.53,4.957-1.821,6.273s1.517,1.922,4.553,1.113a10.265,10.265,0,0,0,4.956-3.339s.708,7.587-.3,10.622-1.417,5.463-.708,5.969a21.15,21.15,0,0,0,10.014,2.63c5.564.2,11.937-.3,12.949-1.316a2.715,2.715,0,0,0,1.011-2.326c0-.708-.4-5.463.81-9.206s4.653-13.353,4.754-16.995-1.315-4.147-4.047-5.26-7.081-3.035-8.093-3.237A29.74,29.74,0,0,0,203.537,165.15Z" transform="translate(-1.161 -1.057)" fill="none" stroke="#263238" stroke-linecap="round" stroke-linejoin="round" stroke-width="1"/>
        <path id="Path_19073" data-name="Path 19073" d="M202.219,163.317a16.405,16.405,0,0,0-2.327,1.821c-.1.3-3.642,5.968-3.237,5.968s4.856-2.225,4.856-2.225,2.226-3.339,2.024-4.654a.965.965,0,0,0-1.316-.91" transform="translate(-1.258 -1.045)" fill="#fff"/>
        <path id="Path_19074" data-name="Path 19074" d="M202.219,163.317a16.405,16.405,0,0,0-2.327,1.821c-.1.3-3.642,5.968-3.237,5.968s4.856-2.225,4.856-2.225,2.226-3.339,2.024-4.654A.965.965,0,0,0,202.219,163.317Z" transform="translate(-1.258 -1.045)" fill="none" stroke="#263238" stroke-linecap="round" stroke-linejoin="round" stroke-width="1"/>
        <path id="Path_19075" data-name="Path 19075" d="M201.38,162.157a27.109,27.109,0,0,1-.506,6.677c-.708,2.73-1.214,4.552-.2,4.855s4.35-4.653,5.26-6.069a9.814,9.814,0,0,0,1.214-2.63l.708-7.89s-4.047,4.349-6.474,5.057" transform="translate(-1.281 -1.006)" fill="#fff"/>
        <path id="Path_19076" data-name="Path 19076" d="M201.38,162.157a27.109,27.109,0,0,1-.506,6.677c-.708,2.73-1.214,4.552-.2,4.855s4.35-4.653,5.26-6.069a9.814,9.814,0,0,0,1.214-2.63l.708-7.89S203.807,161.449,201.38,162.157Z" transform="translate(-1.281 -1.006)" fill="none" stroke="#263238" stroke-linecap="round" stroke-linejoin="round" stroke-width="1"/>
        <path id="Path_19077" data-name="Path 19077" d="M197.717,143.244s-1.012,8.6-1.012,11.836,2.124,7.384,3.136,7.789,3.54.81,4.552.1,3.844-5.058,3.844-5.058a60.076,60.076,0,0,0,2.124-9.306c.3-3.44-.607-5.058-3.743-6.07s-7.283-1.011-8.9.708" transform="translate(-1.259 -0.908)" fill="#fff"/>
        <path id="Path_19078" data-name="Path 19078" d="M197.717,143.244s-1.012,8.6-1.012,11.836,2.124,7.384,3.136,7.789,3.54.81,4.552.1,3.844-5.058,3.844-5.058a60.076,60.076,0,0,0,2.124-9.306c.3-3.44-.607-5.058-3.743-6.07S199.335,141.524,197.717,143.244Z" transform="translate(-1.259 -0.908)" fill="none" stroke="#263238" stroke-linecap="round" stroke-linejoin="round" stroke-width="1"/>
        <path id="Path_19085" data-name="Path 19085" d="M196.094,141.813a1.29,1.29,0,0,0,.035.251,3.241,3.241,0,0,0,2.191,2.176c2.226.911,7.486-.2,9.306.405s1.012,2.326-.1,2.933-1.316.91-.81,1.619,1.72,1.416,1.316,2.226-.607,1.619.1,1.72,1.214.1,1.518-.3,2.326-4.754,2.326-7.283-1.214-3.642-4.046-4.754-8.7-1.821-10.42-.81a2.48,2.48,0,0,0-1.416,1.821" transform="translate(-1.255 -0.893)" fill="#263238"/>
        <path id="Path_19086" data-name="Path 19086" d="M196.094,141.813a1.29,1.29,0,0,0,.035.251,3.241,3.241,0,0,0,2.191,2.176c2.226.911,7.486-.2,9.306.405s1.012,2.326-.1,2.933-1.316.91-.81,1.619,1.72,1.416,1.316,2.226-.607,1.619.1,1.72,1.214.1,1.518-.3,2.326-4.754,2.326-7.283-1.214-3.642-4.046-4.754-8.7-1.821-10.42-.81A2.48,2.48,0,0,0,196.094,141.813Z" transform="translate(-1.255 -0.893)" fill="none" stroke="#263238" stroke-linecap="round" stroke-linejoin="round" stroke-width="1"/>
        <path id="Path_19087" data-name="Path 19087" d="M207.9,156.842a1.631,1.631,0,0,0,2.022.226c1.113-.708,1.619-3.237.91-4.553s-2.124,1.214-2.124,1.214" transform="translate(-1.331 -0.974)" fill="#fff"/>
        <path id="Path_19088" data-name="Path 19088" d="M207.9,156.842a1.631,1.631,0,0,0,2.022.226c1.113-.708,1.619-3.237.91-4.553s-2.124,1.214-2.124,1.214" transform="translate(-1.331 -0.974)" fill="none" stroke="#263238" stroke-linecap="round" stroke-linejoin="round" stroke-width="1"/>
        <path id="Path_19089" data-name="Path 19089" d="M203.68,165.129s-.2,9,.4,7.992,5.666-7.688,5.666-7.688l-1.214-3.54Z" transform="translate(-1.303 -1.036)" fill="#fff"/>
        <path id="Path_19090" data-name="Path 19090" d="M203.68,165.129s-.2,9,.4,7.992,5.666-7.688,5.666-7.688l-1.214-3.54Z" transform="translate(-1.303 -1.036)" fill="none" stroke="#263238" stroke-linecap="round" stroke-linejoin="round" stroke-width="1"/>
        <path id="Path_19091" data-name="Path 19091" d="M212.618,175.1l-3.439,10.723,6.272,7.992s.3.607.809-.1.91-.708,1.72-4.552S220,176.005,219.9,173.781s-.506-3.339-2.226-3.643" transform="translate(-1.339 -1.089)" fill="#263238"/>
        <path id="Path_19092" data-name="Path 19092" d="M212.618,175.1l-3.439,10.723,6.272,7.992s.3.607.809-.1.91-.708,1.72-4.552S220,176.005,219.9,173.781s-.506-3.339-2.226-3.643" transform="translate(-1.339 -1.089)" fill="none" stroke="#263238" stroke-linecap="round" stroke-linejoin="round" stroke-width="1"/>
        <path id="Path_19093" data-name="Path 19093" d="M193.3,187.63s15.68,5.969,17.8,6.07,2.63-1.316,1.719-3.946-3.642-4.147-5.968-4.856a16.845,16.845,0,0,0-8.093.1c-2.327.607-5.463,1.821-5.463,2.63" transform="translate(-1.237 -1.181)" fill="#fff"/>
        <path id="Path_19094" data-name="Path 19094" d="M193.3,187.63s15.68,5.969,17.8,6.07,2.63-1.316,1.719-3.946-3.642-4.147-5.968-4.856a16.845,16.845,0,0,0-8.093.1C196.432,185.607,193.3,186.821,193.3,187.63Z" transform="translate(-1.237 -1.181)" fill="none" stroke="#263238" stroke-linecap="round" stroke-linejoin="round" stroke-width="1"/>
        <path id="Path_19095" data-name="Path 19095" d="M206.429,184.8s3.743,8.093,3.946,8.8,4.046,1.214,5.26,1.113.707-1.922-.506-4.552-3.137-4.957-4.553-5.361a13.334,13.334,0,0,0-4.147,0" transform="translate(-1.321 -1.182)" fill="#fff"/>
        <path id="Path_19096" data-name="Path 19096" d="M206.429,184.8s3.743,8.093,3.946,8.8,4.046,1.214,5.26,1.113.707-1.922-.506-4.552-3.137-4.957-4.553-5.361A13.334,13.334,0,0,0,206.429,184.8Z" transform="translate(-1.321 -1.182)" fill="none" stroke="#263238" stroke-linecap="round" stroke-linejoin="round" stroke-width="1"/>
        <path id="Path_19097" data-name="Path 19097" d="M185.321,181.949a15.7,15.7,0,0,0-3.844.809c-1.416.607-1.72,4.856-1.011,6.374s2.934,1.517,4.451,1.416a3.036,3.036,0,0,0,2.225-1.113l1.113-7.486Z" transform="translate(-1.153 -1.165)" fill="#263238"/>
        <path id="Path_19098" data-name="Path 19098" d="M185.321,181.949a15.7,15.7,0,0,0-3.844.809c-1.416.607-1.72,4.856-1.011,6.374s2.934,1.517,4.451,1.416a3.036,3.036,0,0,0,2.225-1.113l1.113-7.486Z" transform="translate(-1.153 -1.165)" fill="none" stroke="#263238" stroke-linecap="round" stroke-linejoin="round" stroke-width="1"/>
        <path id="Path_19099" data-name="Path 19099" d="M188.287,181.948s11.431,0,14.263-.1,3.541.607,4.147,1.619.81,1.416.81,1.416a44.368,44.368,0,0,0-10.52,2.327c-4.654,1.821-8.7,3.44-10.116,3.44s-2.024-3.643-1.417-6.171a3.05,3.05,0,0,1,2.833-2.529" transform="translate(-1.186 -1.164)" fill="#fff"/>
        <path id="Path_19100" data-name="Path 19100" d="M188.287,181.948s11.431,0,14.263-.1,3.541.607,4.147,1.619.81,1.416.81,1.416a44.368,44.368,0,0,0-10.52,2.327c-4.654,1.821-8.7,3.44-10.116,3.44s-2.024-3.643-1.417-6.171A3.05,3.05,0,0,1,188.287,181.948Z" transform="translate(-1.186 -1.164)" fill="none" stroke="#263238" stroke-linecap="round" stroke-linejoin="round" stroke-width="1"/>
        <path id="Path_19101" data-name="Path 19101" d="M185.035,181.236s4.856-.1,4.754.809-1.012,7.79-1.315,8.4-3.237.91-4.654.809-.91-4.653,0-6.777a27.91,27.91,0,0,0,1.214-3.237" transform="translate(-1.171 -1.16)" fill="#fff"/>
        <path id="Path_19102" data-name="Path 19102" d="M185.035,181.236s4.856-.1,4.754.809-1.012,7.79-1.315,8.4-3.237.91-4.654.809-.91-4.653,0-6.777A27.91,27.91,0,0,0,185.035,181.236Z" transform="translate(-1.171 -1.16)" fill="none" stroke="#263238" stroke-linecap="round" stroke-linejoin="round" stroke-width="1"/>
        <path id="Path_19103" data-name="Path 19103" d="M199.6,204.449s.809,1.214.506,1.517-1.821,1.72-1.72,2.63a2.508,2.508,0,0,0,.607,1.416" transform="translate(-1.27 -1.309)" fill="none" stroke="#263238" stroke-linecap="round" stroke-linejoin="round" stroke-width="1"/>
      </g>
    </g>
    <path id="Path_19104" data-name="Path 19104" d="M14.107,277.312h0Z" transform="translate(-0.09 -1.775)" fill="#fff"/>
    <g id="Group_3305" data-name="Group 3305">
      <g id="Group_3304" data-name="Group 3304" clip-path="url(#clip-path)">
        <line id="Line_91" data-name="Line 91" x2="406.259" transform="translate(14.016 275.537)" fill="none" stroke="#263238" stroke-linecap="round" stroke-linejoin="round" stroke-width="1"/>
      </g>
    </g>
  </g>
</svg>
