<svg xmlns="http://www.w3.org/2000/svg" width="31.9" height="22.145" viewBox="0 0 31.9 22.145">
  <g id="noun-speed-3341122" transform="translate(-0.004 -46.293)">
    <path id="Path_19176" data-name="Path 19176" d="M16,46.293a15.533,15.533,0,0,1,11.219,4.683A15.759,15.759,0,0,1,31.9,62.292a16.769,16.769,0,0,1-1.171,6.146H1.175A19.064,19.064,0,0,1,0,62.292a15.987,15.987,0,0,1,16-16Zm0,15.121a3.914,3.914,0,0,1,1.463.293s4.683-2.829,5.268-3.122c-.585.78-2.049,3.317-3.024,5.073a4.44,4.44,0,0,1,.488,1.951,1.446,1.446,0,0,1-.1.683h9.17a14.146,14.146,0,0,0,.585-2.927H24.588a.878.878,0,1,1,0-1.756h5.268a13.99,13.99,0,0,0-3.317-8.39l-3.512,3.512c-.878.78-2.146-.488-1.268-1.268l3.512-3.512a13.6,13.6,0,0,0-8.39-3.512v4.78a.878.878,0,1,1-1.756,0v-4.78a13.639,13.639,0,0,0-8.487,3.512l3.512,3.512c.878.78-.39,2.049-1.171,1.268L5.467,53.219a14.083,14.083,0,0,0-3.414,8.39H7.321a.878.878,0,1,1,0,1.756H2.15a9.686,9.686,0,0,0,.488,2.927h9.17c0-.2-.1-.39-.1-.683A4.247,4.247,0,0,1,16,61.414Zm2.536,4.878a1.446,1.446,0,0,0,.1-.683,2.683,2.683,0,1,0-5.365,0,1.446,1.446,0,0,0,.1.683h5.171Z" transform="translate(0 0)" fill="#1b395f"/>
  </g>
</svg>
