<svg id="noun-transmission-1325127" xmlns="http://www.w3.org/2000/svg" width="29.106" height="27.123" viewBox="0 0 29.106 27.123">
  <path id="Path_19142" data-name="Path 19142" d="M107.9,50.4a4.294,4.294,0,0,0-.661,8.538V68.981a4.3,4.3,0,1,0,1.323,0V64.619h8.93v4.362a4.3,4.3,0,1,0,1.323,0V64.619h9.592a.662.662,0,0,0,.661-.661V58.934a4.3,4.3,0,1,0-1.323,0V63.3h-8.93V58.934a4.3,4.3,0,1,0-1.323,0V63.3h-8.93V58.934A4.294,4.294,0,0,0,107.9,50.4Zm0,1.323a2.977,2.977,0,1,1-2.977,2.977A2.967,2.967,0,0,1,107.9,51.719Zm10.253,0a2.977,2.977,0,1,1-2.977,2.977A2.967,2.967,0,0,1,118.156,51.719Zm10.254,0a2.977,2.977,0,1,1-2.977,2.977A2.967,2.967,0,0,1,128.41,51.719Zm0,17.2a4.3,4.3,0,1,0,2.956,7.411.662.662,0,1,0-.909-.951,2.976,2.976,0,1,1,.93-2.16.662.662,0,1,0,1.323,0,4.31,4.31,0,0,0-4.3-4.3ZM107.9,70.242a2.977,2.977,0,1,1-2.977,2.977A2.967,2.967,0,0,1,107.9,70.242Zm10.253,0a2.977,2.977,0,1,1-2.977,2.977A2.967,2.967,0,0,1,118.156,70.242Z" transform="translate(-103.603 -50.396)" fill="#1b395f"/>
</svg>
