<svg id="_5ce9306fbb95e1558786159" data-name="5ce9306fbb95e1558786159" xmlns="http://www.w3.org/2000/svg" xmlns:xlink="http://www.w3.org/1999/xlink" width="81.108" height="81.108" viewBox="0 0 81.108 81.108">
  <defs>
    <linearGradient id="linear-gradient" x1="-5.701" y1="10.836" x2="-5.27" y2="10.421" gradientUnits="objectBoundingBox">
      <stop offset="0" stop-color="#dff4ff"/>
      <stop offset="0.098" stop-color="#d6eaf5"/>
      <stop offset="0.268" stop-color="#bfd0d9"/>
      <stop offset="0.488" stop-color="#98a5ac"/>
      <stop offset="0.747" stop-color="#646b6e"/>
      <stop offset="1" stop-color="#2b2b2b"/>
    </linearGradient>
    <radialGradient id="radial-gradient" cx="-0.033" cy="0.008" r="0.748" gradientUnits="objectBoundingBox">
      <stop offset="0" stop-color="#fff"/>
      <stop offset="0.306" stop-color="#a8a8a8"/>
      <stop offset="0.646" stop-color="#4f4f4f"/>
      <stop offset="0.885" stop-color="#161616"/>
      <stop offset="1"/>
    </radialGradient>
    <linearGradient id="linear-gradient-2" x1="-0.986" y1="4.486" x2="-0.556" y2="4.07" gradientUnits="objectBoundingBox">
      <stop offset="0" stop-color="#dff4ff"/>
      <stop offset="0.086" stop-color="#d6eaf5"/>
      <stop offset="0.233" stop-color="#bed0d9"/>
      <stop offset="0.424" stop-color="#96a4ac"/>
      <stop offset="0.652" stop-color="#5f686d"/>
      <stop offset="0.907" stop-color="#1a1d1e"/>
      <stop offset="1"/>
    </linearGradient>
    <radialGradient id="radial-gradient-2" cx="-3.913" cy="-0.649" r="13.532" gradientUnits="objectBoundingBox">
      <stop offset="0" stop-color="#fff"/>
      <stop offset="0.31" stop-color="#fdfdfd"/>
      <stop offset="0.451" stop-color="#f6f6f6"/>
      <stop offset="0.557" stop-color="#e9e9e9"/>
      <stop offset="0.646" stop-color="#d7d7d7"/>
      <stop offset="0.724" stop-color="#bfbfbf"/>
      <stop offset="0.794" stop-color="#a2a2a2"/>
      <stop offset="0.859" stop-color="gray"/>
      <stop offset="0.92" stop-color="#575757"/>
      <stop offset="0.975" stop-color="#2b2b2b"/>
      <stop offset="1" stop-color="#141414"/>
    </radialGradient>
    <radialGradient id="radial-gradient-3" cx="-4.858" cy="-1.026" r="9.497" xlink:href="#radial-gradient-2"/>
    <radialGradient id="radial-gradient-4" cx="-1.422" cy="-1.139" r="9.892" xlink:href="#radial-gradient-2"/>
    <radialGradient id="radial-gradient-5" cx="-0.033" cy="0.008" r="0.747" gradientUnits="objectBoundingBox">
      <stop offset="0" stop-color="#e6e6e6"/>
      <stop offset="0.104" stop-color="#d6d6d6"/>
      <stop offset="0.307" stop-color="#adadad"/>
      <stop offset="0.588" stop-color="#6c6c6c"/>
      <stop offset="0.933" stop-color="#121212"/>
      <stop offset="1"/>
    </radialGradient>
    <radialGradient id="radial-gradient-6" cx="0.162" cy="0.097" r="1.119" gradientUnits="objectBoundingBox">
      <stop offset="0" stop-color="#fff"/>
      <stop offset="0.344" stop-color="#fdfdfd"/>
      <stop offset="0.481" stop-color="#f6f6f6"/>
      <stop offset="0.582" stop-color="#eaeaea"/>
      <stop offset="0.665" stop-color="#d8d8d8"/>
      <stop offset="0.737" stop-color="#c2c2c2"/>
      <stop offset="0.802" stop-color="#a6a6a6"/>
      <stop offset="0.86" stop-color="#848484"/>
      <stop offset="0.913" stop-color="#5f5f5f"/>
      <stop offset="0.949" stop-color="#404040"/>
      <stop offset="0.957" stop-color="#404040"/>
      <stop offset="1" stop-color="#404040"/>
      <stop offset="1"/>
    </radialGradient>
    <radialGradient id="radial-gradient-7" cx="-0.332" cy="-0.652" r="3.958" gradientUnits="objectBoundingBox">
      <stop offset="0.169" stop-color="#fff"/>
      <stop offset="0.196" stop-color="#e0eff7"/>
      <stop offset="0.241" stop-color="#b2d9ec"/>
      <stop offset="0.287" stop-color="#8bc5e2"/>
      <stop offset="0.335" stop-color="#6bb5da"/>
      <stop offset="0.384" stop-color="#52a9d4"/>
      <stop offset="0.436" stop-color="#41a0cf"/>
      <stop offset="0.491" stop-color="#369bcd"/>
      <stop offset="0.556" stop-color="#39c"/>
      <stop offset="0.606" stop-color="#3396c8"/>
      <stop offset="0.655" stop-color="#328ebc"/>
      <stop offset="0.705" stop-color="#3180a8"/>
      <stop offset="0.754" stop-color="#2f6d8c"/>
      <stop offset="0.803" stop-color="#2d5468"/>
      <stop offset="0.851" stop-color="#2a373d"/>
      <stop offset="0.871" stop-color="#292929"/>
    </radialGradient>
    <radialGradient id="radial-gradient-8" cx="-1.332" cy="-1.652" r="3.958" xlink:href="#radial-gradient-7"/>
    <radialGradient id="radial-gradient-9" cx="-0.034" cy="0.007" r="0.748" xlink:href="#radial-gradient-5"/>
    <linearGradient id="linear-gradient-3" x1="-20.408" y1="36.049" x2="-19.8" y2="35.461" gradientUnits="objectBoundingBox">
      <stop offset="0" stop-color="#f0f4ff"/>
      <stop offset="0.109" stop-color="#ebeff9"/>
      <stop offset="0.247" stop-color="#dce0ea"/>
      <stop offset="0.403" stop-color="#c4c7cf"/>
      <stop offset="0.57" stop-color="#a2a4ab"/>
      <stop offset="0.747" stop-color="#76777c"/>
      <stop offset="0.929" stop-color="#414243"/>
      <stop offset="1" stop-color="#2b2b2b"/>
    </linearGradient>
    <linearGradient id="linear-gradient-4" x1="-19.862" y1="34.52" x2="-19.254" y2="33.932" xlink:href="#linear-gradient-3"/>
    <linearGradient id="linear-gradient-5" x1="-19.604" y1="35.64" x2="-19.289" y2="35.336" gradientUnits="objectBoundingBox">
      <stop offset="0" stop-color="#c2d7e8"/>
      <stop offset="0.134" stop-color="#bacfe1"/>
      <stop offset="0.343" stop-color="#a4bacd"/>
      <stop offset="0.6" stop-color="#8098ac"/>
      <stop offset="0.894" stop-color="#4e697f"/>
      <stop offset="1" stop-color="#3a566d"/>
    </linearGradient>
    <linearGradient id="linear-gradient-6" x1="-19.949" y1="35.026" x2="-19.341" y2="34.437" gradientUnits="objectBoundingBox">
      <stop offset="0" stop-color="#f0f4ff"/>
      <stop offset="0.097" stop-color="#e8ebf6"/>
      <stop offset="0.257" stop-color="#d1d4dd"/>
      <stop offset="0.459" stop-color="#abaeb5"/>
      <stop offset="0.695" stop-color="#78797d"/>
      <stop offset="0.958" stop-color="#363637"/>
      <stop offset="1" stop-color="#2b2b2b"/>
    </linearGradient>
    <linearGradient id="linear-gradient-7" x1="-20.578" y1="34.808" x2="-20.364" y2="34.601" gradientUnits="objectBoundingBox">
      <stop offset="0" stop-color="#d9def0"/>
      <stop offset="0.123" stop-color="#d4daec"/>
      <stop offset="0.263" stop-color="#c7cfe2"/>
      <stop offset="0.411" stop-color="#b0bcd1"/>
      <stop offset="0.566" stop-color="#90a1b8"/>
      <stop offset="0.725" stop-color="#677f99"/>
      <stop offset="0.885" stop-color="#355674"/>
      <stop offset="0.972" stop-color="#173d5d"/>
    </linearGradient>
    <linearGradient id="linear-gradient-8" x1="-20.796" y1="36.295" x2="-20.187" y2="35.707" xlink:href="#linear-gradient-3"/>
  </defs>
  <path id="Path_136" data-name="Path 136" d="M95.454,55.7a40.554,40.554,0,1,0,40.554,40.554A40.566,40.566,0,0,0,95.454,55.7Zm0,79.1A38.55,38.55,0,1,1,134,96.254,38.564,38.564,0,0,1,95.454,134.8Z" transform="translate(-54.9 -55.7)" fill="url(#linear-gradient)"/>
  <path id="Path_137" data-name="Path 137" d="M136.611,98.605A38.806,38.806,0,1,1,97.806,59.8,38.81,38.81,0,0,1,136.611,98.605Z" transform="translate(-57.252 -58.052)" fill="#333"/>
  <path id="Path_138" data-name="Path 138" d="M136.7,98.95A38.55,38.55,0,1,1,98.15,60.4,38.564,38.564,0,0,1,136.7,98.95Z" transform="translate(-57.596 -58.396)" fill="url(#radial-gradient)"/>
  <path id="Path_139" data-name="Path 139" d="M141.084,116.042A25.842,25.842,0,1,1,115.242,90.2,25.825,25.825,0,0,1,141.084,116.042Z" transform="translate(-74.688 -75.488)" fill="url(#linear-gradient-2)"/>
  <path id="Path_140" data-name="Path 140" d="M143.051,74.849l2.687-7.079v7.079h2.047V64.7h-3.028l-2.814,7.292h.043L139.17,64.7H136.1V74.849h2.047V67.77l2.687,7.079Zm27.974,4.605-3.5,5.075,5.458-2.729,1.493,1.748-8.614,4.35-1.748-2.132,3.326-5.032v-.043L161.9,83.079l-1.748-2.09,5.757-7.633,1.493,1.748-3.625,4.861L169.4,77.45Z" transform="translate(-101.473 -60.862)"/>
  <path id="Path_141" data-name="Path 141" d="M89.919,89.576a2.605,2.605,0,0,0-3.284-.3,2.333,2.333,0,0,0,0-1.535,3.77,3.77,0,0,0-1.109-1.407c-1.365-1.109-2.814-.171-3.838,1.023L76.7,93.286l7.8,6.567,5.245-6.226c1.237-1.365,1.45-2.772.171-4.051Zm-10.106,2.9L82.8,88.894a1.145,1.145,0,0,1,1.62.043,1.074,1.074,0,0,1,.171,1.578l-2.942,3.539-1.834-1.578Zm8.23.6-3.113,3.71-1.962-1.62,3.113-3.753a1.187,1.187,0,0,1,1.663-.085,1.22,1.22,0,0,1,.3,1.748Z" transform="translate(-67.404 -72.988)" fill="#333"/>
  <path id="Path_142" data-name="Path 142" d="M143.108,73.934l2.687-7.079v7.079h2.047V63.7h-3.028L142,70.992h.043L139.228,63.7H136.2V73.892h2.047V66.77l2.687,7.079h2.217v.085Z" transform="translate(-101.531 -60.289)" fill="url(#radial-gradient-2)"/>
  <path id="Path_143" data-name="Path 143" d="M203.474,89.341l-3.5,5.075,5.458-2.729,1.493,1.748-8.614,4.35-1.748-2.132,3.326-5.032v-.043l-5.544,2.388-1.748-2.09,5.8-7.676,1.493,1.748-3.625,4.861,5.586-2.516Z" transform="translate(-133.88 -71.473)" fill="url(#radial-gradient-3)"/>
  <path id="Path_144" data-name="Path 144" d="M89.177,89.176a2.552,2.552,0,0,0-3.241-.3,2.333,2.333,0,0,0,0-1.535,3.77,3.77,0,0,0-1.109-1.407c-1.365-1.109-2.814-.171-3.838,1.023L76,92.886l7.8,6.567,5.245-6.226c1.151-1.407,1.322-2.814.128-4.051ZM79.028,92.033l2.985-3.582a1.145,1.145,0,0,1,1.62.043,1.074,1.074,0,0,1,.171,1.578l-2.942,3.539-1.834-1.578Zm8.23.6-3.113,3.71-1.962-1.62L85.3,90.967a1.187,1.187,0,0,1,1.663-.085,1.157,1.157,0,0,1,.3,1.748Z" transform="translate(-67.002 -72.758)" fill="url(#radial-gradient-4)"/>
  <path id="Path_145" data-name="Path 145" d="M91.4,117.189a24.989,24.989,0,1,1,24.989,24.989A25.024,25.024,0,0,1,91.4,117.189Z" transform="translate(-75.835 -76.635)" fill="url(#radial-gradient-5)"/>
  <path id="Path_146" data-name="Path 146" d="M93.1,118.164a24.264,24.264,0,1,1,24.264,24.264A24.223,24.223,0,0,1,93.1,118.164Z" transform="translate(-76.81 -77.61)" fill="url(#radial-gradient-6)"/>
  <path id="Path_147" data-name="Path 147" d="M93,118.107h24.307V93.8A24.3,24.3,0,0,0,93,118.107Z" transform="translate(-76.753 -77.553)" fill="url(#radial-gradient-7)"/>
  <path id="Path_148" data-name="Path 148" d="M150,150.8v24.307A24.3,24.3,0,0,0,174.307,150.8Z" transform="translate(-109.446 -110.246)" fill="url(#radial-gradient-8)"/>
  <path id="Path_149" data-name="Path 149" d="M141.555,117.408H117.5V93.4h-.9v24.094H92.6v.853h24.051V142.4h.853V118.3H141.6v-.9Z" transform="translate(-76.523 -77.323)" fill="url(#radial-gradient-9)"/>
  <path id="Path_150" data-name="Path 150" d="M151.1,94.484A23.816,23.816,0,0,1,174.511,117.9h.426a24.2,24.2,0,0,0-23.8-23.8v.384Z" transform="translate(-110.077 -77.725)" fill="url(#linear-gradient-3)"/>
  <path id="Path_151" data-name="Path 151" d="M93.526,117.58a23.816,23.816,0,0,1,23.411-23.411V93.7A24.273,24.273,0,0,0,93.1,117.538h.426Z" transform="translate(-76.81 -77.495)" fill="#c2d7e8"/>
  <path id="Path_152" data-name="Path 152" d="M116.838,175.111A23.816,23.816,0,0,1,93.426,151.7H93a24.2,24.2,0,0,0,23.8,23.8l.043-.384Z" transform="translate(-76.753 -110.762)" fill="url(#linear-gradient-4)"/>
  <path id="Path_153" data-name="Path 153" d="M174.311,151.8A23.816,23.816,0,0,1,150.9,175.211v.469a24.2,24.2,0,0,0,23.8-23.8h-.426V151.8Z" transform="translate(-109.962 -110.82)" fill="#12404f"/>
  <path id="Path_154" data-name="Path 154" d="M116.469,93.8v23.411H93.1v.469h23.8V93.8Z" transform="translate(-76.81 -77.553)" fill="url(#linear-gradient-5)"/>
  <path id="Path_155" data-name="Path 155" d="M116.655,175.539V152.426H93.5V152h23.582v23.539Z" transform="translate(-77.04 -110.934)" fill="url(#linear-gradient-6)"/>
  <path id="Path_156" data-name="Path 156" d="M151.469,175.539V152.426h23.07V152H151v23.539Z" transform="translate(-110.02 -110.934)" fill="url(#linear-gradient-7)"/>
  <path id="Path_157" data-name="Path 157" d="M151.469,94.3v23.07h23.07v.469H151V94.3Z" transform="translate(-110.02 -77.84)" fill="url(#linear-gradient-8)"/>
</svg>
