<svg xmlns="http://www.w3.org/2000/svg" width="21.309" height="21.309" viewBox="0 0 21.309 21.309">
  <g id="Icon_feather-instagram" data-name="Icon feather-instagram" transform="translate(0.75 0.75)">
    <path id="Path_277" data-name="Path 277" d="M7.952,3h9.9a4.952,4.952,0,0,1,4.952,4.952v9.9a4.952,4.952,0,0,1-4.952,4.952h-9.9A4.952,4.952,0,0,1,3,17.857v-9.9A4.952,4.952,0,0,1,7.952,3Z" transform="translate(-3 -3)" fill="none" stroke="#fff" stroke-linecap="round" stroke-linejoin="round" stroke-width="1.5"/>
    <path id="Path_278" data-name="Path 278" d="M19.946,15.316a3.962,3.962,0,1,1-3.338-3.338,3.962,3.962,0,0,1,3.338,3.338Z" transform="translate(-6.079 -6.035)" fill="none" stroke="#fff" stroke-linecap="round" stroke-linejoin="round" stroke-width="1.5"/>
    <path id="Path_279" data-name="Path 279" d="M26.25,9.75h0" transform="translate(-10.898 -5.293)" fill="none" stroke="#fff" stroke-linecap="round" stroke-linejoin="round" stroke-width="1.5"/>
  </g>
</svg>
