<svg width="40" height="40" viewBox="0 0 40 40" fill="none" xmlns="http://www.w3.org/2000/svg">
<path d="M31.8514 3.89949C31.1558 3.38534 30.4266 2.91826 29.6686 2.50137C25.4421 0.161215 20.511 -0.568876 15.7876 0.446185C11.0643 1.46125 6.86855 4.15275 3.97659 8.02271C1.08463 11.8927 -0.307735 16.6791 0.0571036 21.4965C0.421943 26.3138 2.5193 30.836 5.9611 34.2263C6.0565 34.3186 6.14574 34.4068 6.23703 34.4991C10.0631 38.1389 15.1752 40.115 20.4547 39.9948C25.7342 39.8747 30.7511 37.6681 34.4076 33.858C34.5636 33.7021 34.7154 33.538 34.86 33.3728C36.7297 31.2999 38.1441 28.8579 39.0119 26.2046C39.8797 23.5513 40.1815 20.7455 39.8981 17.9683C39.6146 15.1911 38.752 12.5042 37.366 10.081C35.9801 7.65772 34.1015 5.55193 31.8514 3.89949ZM2.55145 20.004C2.55044 17.0268 3.31125 14.0989 4.76148 11.4988C6.21172 8.8987 8.30313 6.71293 10.8368 5.14946C13.3704 3.58598 16.2619 2.69681 19.2363 2.56653C22.2106 2.43626 25.1688 3.06922 27.8294 4.4052L12.8799 19.8707L25.3091 29.3077C19.084 28.6077 12.7814 29.3641 6.89865 31.5172C4.09409 28.338 2.54806 24.2435 2.55145 20.004ZM19.9997 37.4523C15.9679 37.4559 12.0603 36.0576 8.94608 33.4969C15.7501 31.2578 23.0501 30.9963 29.9969 32.743L31.4996 33.1236C28.3206 35.9166 24.2324 37.4549 20.0008 37.4502M32.8228 31.8208L16.6947 19.566L30.0646 5.751C32.094 7.18062 33.7945 9.02748 35.0521 11.1678C36.3096 13.3082 37.0952 15.6926 37.3562 18.1613C37.6172 20.6299 37.3476 23.1259 36.5653 25.4819C35.7831 27.8379 34.5064 29.9995 32.8208 31.8219" fill="#1B395F"/>
</svg>
