<svg xmlns="http://www.w3.org/2000/svg" width="20.799" height="20.799" viewBox="0 0 20.799 20.799">
  <path id="Icon_awesome-whatsapp" data-name="Icon awesome-whatsapp" d="M17.684,5.272A10.31,10.31,0,0,0,1.462,17.71L0,23.049l5.464-1.435a10.275,10.275,0,0,0,4.926,1.254h0A10.406,10.406,0,0,0,20.8,12.561a10.347,10.347,0,0,0-3.115-7.289ZM10.4,21.132a8.551,8.551,0,0,1-4.364-1.193l-.311-.186-3.241.85.864-3.162-.2-.325a8.583,8.583,0,1,1,15.92-4.554,8.662,8.662,0,0,1-8.663,8.57Zm4.7-6.416c-.255-.13-1.523-.752-1.76-.836s-.409-.13-.58.13-.664.836-.817,1.012-.3.195-.557.065a7.01,7.01,0,0,1-3.505-3.064c-.265-.455.265-.422.757-1.407a.477.477,0,0,0-.023-.45c-.065-.13-.58-1.4-.794-1.913s-.422-.432-.58-.441S6.913,7.8,6.741,7.8a.954.954,0,0,0-.687.32,2.894,2.894,0,0,0-.9,2.15A5.045,5.045,0,0,0,6.2,12.938a11.508,11.508,0,0,0,4.4,3.891,5.039,5.039,0,0,0,3.092.645,2.638,2.638,0,0,0,1.736-1.226,2.154,2.154,0,0,0,.149-1.226C15.521,14.906,15.349,14.841,15.093,14.716Z" transform="translate(0 -2.25)" fill="#fff"/>
</svg>
